<mxfile host="65bd71144e">
    <diagram id="goPlcy9OKlecyh8LNCaE" name="第 1 页">
        <mxGraphModel dx="463" dy="536" grid="1" gridSize="10" guides="1" tooltips="1" connect="1" arrows="1" fold="1" page="1" pageScale="1" pageWidth="1169" pageHeight="827" math="0" shadow="0">
            <root>
                <mxCell id="0"/>
                <mxCell id="1" parent="0"/>
                <mxCell id="2" value="Vulkan初始化流程" style="swimlane;startSize=20;horizontal=1;childLayout=flowLayout;flowOrientation=north;resizable=0;interRankCellSpacing=50;containerType=tree;fontSize=12;rounded=1;" parent="1" vertex="1">
                    <mxGeometry x="360" y="200" width="430" height="1000" as="geometry"/>
                </mxCell>
                <mxCell id="3" value="创建VK实例" style="whiteSpace=wrap;html=1;rounded=1;" parent="2" vertex="1">
                    <mxGeometry x="165" y="40" width="100" height="40" as="geometry"/>
                </mxCell>
                <mxCell id="34" style="edgeStyle=none;rounded=1;html=1;noEdgeStyle=1;orthogonal=1;" parent="2" source="6" target="33" edge="1">
                    <mxGeometry relative="1" as="geometry">
                        <Array as="points">
                            <mxPoint x="85" y="182"/>
                            <mxPoint x="20" y="195"/>
                            <mxPoint x="20" y="285"/>
                            <mxPoint x="20" y="285"/>
                            <mxPoint x="20" y="375"/>
                            <mxPoint x="155.25462962962965" y="388"/>
                        </Array>
                    </mxGeometry>
                </mxCell>
                <mxCell id="6" value="创建表面界面&lt;br&gt;Surface" style="whiteSpace=wrap;html=1;rounded=1;" parent="2" vertex="1">
                    <mxGeometry x="35" y="130" width="100" height="40" as="geometry"/>
                </mxCell>
                <mxCell id="7" value="" style="html=1;rounded=1;curved=0;sourcePerimeterSpacing=0;targetPerimeterSpacing=0;startSize=6;endSize=6;noEdgeStyle=1;orthogonal=1;" parent="2" source="3" target="6" edge="1">
                    <mxGeometry relative="1" as="geometry">
                        <Array as="points">
                            <mxPoint x="185" y="92"/>
                            <mxPoint x="85" y="118"/>
                        </Array>
                    </mxGeometry>
                </mxCell>
                <mxCell id="15" value="" style="edgeStyle=none;rounded=1;html=1;noEdgeStyle=1;orthogonal=1;" parent="2" source="3" target="16" edge="1">
                    <mxGeometry relative="1" as="geometry">
                        <Array as="points">
                            <mxPoint x="215" y="94"/>
                            <mxPoint x="215" y="118"/>
                        </Array>
                    </mxGeometry>
                </mxCell>
                <mxCell id="16" value="选择物理设备" style="whiteSpace=wrap;html=1;rounded=1;" parent="2" vertex="1">
                    <mxGeometry x="165" y="130" width="100" height="40" as="geometry"/>
                </mxCell>
                <mxCell id="25" value="" style="edgeStyle=none;rounded=1;html=1;noEdgeStyle=1;orthogonal=1;" parent="2" source="3" target="26" edge="1">
                    <mxGeometry relative="1" as="geometry">
                        <Array as="points">
                            <mxPoint x="245" y="92"/>
                            <mxPoint x="345" y="118"/>
                        </Array>
                    </mxGeometry>
                </mxCell>
                <mxCell id="26" value="设置校验层&lt;br&gt;回调函数" style="whiteSpace=wrap;html=1;rounded=1;" parent="2" vertex="1">
                    <mxGeometry x="295" y="130" width="100" height="40" as="geometry"/>
                </mxCell>
                <mxCell id="30" value="" style="edgeStyle=none;rounded=1;html=1;noEdgeStyle=1;orthogonal=1;" parent="2" source="16" target="61" edge="1">
                    <mxGeometry relative="1" as="geometry">
                        <mxPoint x="2070" y="3180" as="sourcePoint"/>
                        <Array as="points">
                            <mxPoint x="185" y="182"/>
                            <mxPoint x="100" y="208"/>
                        </Array>
                    </mxGeometry>
                </mxCell>
                <mxCell id="31" value="选择需要的队列族&lt;br&gt;Queue" style="whiteSpace=wrap;html=1;rounded=1;" parent="2" vertex="1">
                    <mxGeometry x="167.67361111111111" y="310" width="100" height="40" as="geometry"/>
                </mxCell>
                <mxCell id="32" value="" style="edgeStyle=none;rounded=1;html=1;noEdgeStyle=1;orthogonal=1;" parent="2" source="31" target="33" edge="1">
                    <mxGeometry relative="1" as="geometry">
                        <mxPoint x="2010" y="3230" as="sourcePoint"/>
                        <Array as="points">
                            <mxPoint x="217.67361111111111" y="362"/>
                            <mxPoint x="200.25462962962965" y="388"/>
                        </Array>
                    </mxGeometry>
                </mxCell>
                <mxCell id="33" value="创建逻辑设备" style="whiteSpace=wrap;html=1;rounded=1;" parent="2" vertex="1">
                    <mxGeometry x="127.75462962962965" y="400" width="100" height="40" as="geometry"/>
                </mxCell>
                <mxCell id="60" value="" style="edgeStyle=none;rounded=1;html=1;noEdgeStyle=1;orthogonal=1;" parent="2" source="61" target="31" edge="1">
                    <mxGeometry relative="1" as="geometry">
                        <mxPoint x="1470" y="2070" as="sourcePoint"/>
                        <Array as="points">
                            <mxPoint x="100" y="272"/>
                            <mxPoint x="187.67361111111111" y="298"/>
                        </Array>
                    </mxGeometry>
                </mxCell>
                <mxCell id="61" value="查询满足要求的队列族Queue" style="whiteSpace=wrap;html=1;rounded=1;" parent="2" vertex="1">
                    <mxGeometry x="50" y="220" width="100" height="40" as="geometry"/>
                </mxCell>
                <mxCell id="62" value="" style="edgeStyle=none;rounded=1;html=1;noEdgeStyle=1;orthogonal=1;" parent="2" source="16" target="63" edge="1">
                    <mxGeometry relative="1" as="geometry">
                        <mxPoint x="1410" y="1950" as="sourcePoint"/>
                        <Array as="points">
                            <mxPoint x="215" y="184"/>
                            <mxPoint x="230" y="208"/>
                        </Array>
                    </mxGeometry>
                </mxCell>
                <mxCell id="66" style="edgeStyle=none;rounded=1;html=1;startArrow=none;startFill=0;endArrow=open;endFill=0;noEdgeStyle=1;orthogonal=1;" parent="2" source="63" target="31" edge="1">
                    <mxGeometry relative="1" as="geometry">
                        <Array as="points">
                            <mxPoint x="230" y="272"/>
                            <mxPoint x="217.67361111111111" y="296"/>
                        </Array>
                    </mxGeometry>
                </mxCell>
                <mxCell id="63" value="检查物理设备是否满足所有的扩展" style="whiteSpace=wrap;html=1;rounded=1;" parent="2" vertex="1">
                    <mxGeometry x="180" y="220" width="100" height="40" as="geometry"/>
                </mxCell>
                <mxCell id="64" value="" style="edgeStyle=none;rounded=1;html=1;noEdgeStyle=1;orthogonal=1;" parent="2" source="16" target="65" edge="1">
                    <mxGeometry relative="1" as="geometry">
                        <mxPoint x="1367.5" y="1910" as="sourcePoint"/>
                        <Array as="points">
                            <mxPoint x="245" y="182"/>
                            <mxPoint x="360" y="208"/>
                        </Array>
                    </mxGeometry>
                </mxCell>
                <mxCell id="67" style="edgeStyle=none;rounded=1;html=1;startArrow=none;startFill=0;endArrow=open;endFill=0;noEdgeStyle=1;orthogonal=1;" parent="2" source="65" target="31" edge="1">
                    <mxGeometry relative="1" as="geometry">
                        <Array as="points">
                            <mxPoint x="360" y="272"/>
                            <mxPoint x="247.67361111111111" y="298"/>
                        </Array>
                    </mxGeometry>
                </mxCell>
                <mxCell id="65" value="检查是否满足交换链的要求" style="whiteSpace=wrap;html=1;rounded=1;" parent="2" vertex="1">
                    <mxGeometry x="310" y="220" width="100" height="40" as="geometry"/>
                </mxCell>
                <mxCell id="68" value="" style="edgeStyle=none;rounded=1;html=1;noEdgeStyle=1;orthogonal=1;" parent="2" source="33" target="71" edge="1">
                    <mxGeometry relative="1" as="geometry">
                        <mxPoint x="1283.125" y="1850" as="sourcePoint"/>
                        <Array as="points">
                            <mxPoint x="177.75462962962965" y="452"/>
                            <mxPoint x="206.42361111111111" y="478"/>
                        </Array>
                    </mxGeometry>
                </mxCell>
                <mxCell id="69" value="选择表面格式" style="whiteSpace=wrap;html=1;rounded=1;" parent="2" vertex="1">
                    <mxGeometry x="35" y="580" width="100" height="40" as="geometry"/>
                </mxCell>
                <mxCell id="70" value="" style="edgeStyle=none;rounded=1;html=1;noEdgeStyle=1;orthogonal=1;" parent="2" source="71" target="69" edge="1">
                    <mxGeometry relative="1" as="geometry">
                        <mxPoint x="1192.3945473251028" y="1860" as="sourcePoint"/>
                        <Array as="points">
                            <mxPoint x="176.42361111111111" y="542"/>
                            <mxPoint x="85" y="568"/>
                        </Array>
                    </mxGeometry>
                </mxCell>
                <mxCell id="71" value="查询交换链细节" style="whiteSpace=wrap;html=1;rounded=1;" parent="2" vertex="1">
                    <mxGeometry x="156.42361111111111" y="490" width="100" height="40" as="geometry"/>
                </mxCell>
                <mxCell id="72" value="" style="edgeStyle=none;rounded=1;html=1;noEdgeStyle=1;orthogonal=1;" parent="2" source="71" target="73" edge="1">
                    <mxGeometry relative="1" as="geometry">
                        <mxPoint x="1132.8170010288065" y="1740" as="sourcePoint"/>
                        <Array as="points">
                            <mxPoint x="206.42361111111111" y="544"/>
                            <mxPoint x="215" y="568"/>
                        </Array>
                    </mxGeometry>
                </mxCell>
                <mxCell id="78" style="edgeStyle=none;rounded=1;html=1;startArrow=none;startFill=0;endArrow=open;endFill=0;noEdgeStyle=1;orthogonal=1;" parent="2" source="73" target="77" edge="1">
                    <mxGeometry relative="1" as="geometry">
                        <Array as="points">
                            <mxPoint x="215" y="632"/>
                            <mxPoint x="215" y="656"/>
                        </Array>
                    </mxGeometry>
                </mxCell>
                <mxCell id="73" value="选择呈现模式" style="whiteSpace=wrap;html=1;rounded=1;" parent="2" vertex="1">
                    <mxGeometry x="165" y="580" width="100" height="40" as="geometry"/>
                </mxCell>
                <mxCell id="74" value="" style="edgeStyle=none;rounded=1;html=1;noEdgeStyle=1;orthogonal=1;" parent="2" source="71" target="75" edge="1">
                    <mxGeometry relative="1" as="geometry">
                        <mxPoint x="1174.7372256515775" y="1790" as="sourcePoint"/>
                        <Array as="points">
                            <mxPoint x="236.42361111111111" y="542"/>
                            <mxPoint x="345" y="568"/>
                        </Array>
                    </mxGeometry>
                </mxCell>
                <mxCell id="79" style="edgeStyle=none;rounded=1;html=1;startArrow=none;startFill=0;endArrow=open;endFill=0;noEdgeStyle=1;orthogonal=1;" parent="2" source="75" target="77" edge="1">
                    <mxGeometry relative="1" as="geometry">
                        <Array as="points">
                            <mxPoint x="345" y="632"/>
                            <mxPoint x="245" y="658"/>
                        </Array>
                    </mxGeometry>
                </mxCell>
                <mxCell id="75" value="选择图像大小" style="whiteSpace=wrap;html=1;rounded=1;" parent="2" vertex="1">
                    <mxGeometry x="295" y="580" width="100" height="40" as="geometry"/>
                </mxCell>
                <mxCell id="76" value="" style="edgeStyle=none;rounded=1;html=1;noEdgeStyle=1;orthogonal=1;" parent="2" source="69" target="77" edge="1">
                    <mxGeometry relative="1" as="geometry">
                        <mxPoint x="1106.423611111111" y="1750" as="sourcePoint"/>
                        <Array as="points">
                            <mxPoint x="85" y="632"/>
                            <mxPoint x="185" y="658"/>
                        </Array>
                    </mxGeometry>
                </mxCell>
                <mxCell id="77" value="创建交换链" style="whiteSpace=wrap;html=1;rounded=1;" parent="2" vertex="1">
                    <mxGeometry x="165" y="670" width="100" height="40" as="geometry"/>
                </mxCell>
                <mxCell id="80" value="" style="edgeStyle=none;rounded=1;html=1;noEdgeStyle=1;orthogonal=1;" parent="2" source="77" target="81" edge="1">
                    <mxGeometry relative="1" as="geometry">
                        <mxPoint x="875" y="1560" as="sourcePoint"/>
                        <Array as="points">
                            <mxPoint x="215" y="722"/>
                            <mxPoint x="215" y="748"/>
                        </Array>
                    </mxGeometry>
                </mxCell>
                <mxCell id="81" value="图像视图&lt;br&gt;Image View" style="whiteSpace=wrap;html=1;rounded=1;" parent="2" vertex="1">
                    <mxGeometry x="165" y="760" width="100" height="40" as="geometry"/>
                </mxCell>
                <mxCell id="82" value="" style="edgeStyle=none;rounded=1;html=1;noEdgeStyle=1;orthogonal=1;" parent="2" source="81" target="83" edge="1">
                    <mxGeometry relative="1" as="geometry">
                        <mxPoint x="965" y="1570" as="sourcePoint"/>
                        <Array as="points">
                            <mxPoint x="215" y="812"/>
                            <mxPoint x="215" y="838"/>
                        </Array>
                    </mxGeometry>
                </mxCell>
                <mxCell id="83" value="创建图形管线" style="whiteSpace=wrap;html=1;rounded=1;" parent="2" vertex="1">
                    <mxGeometry x="165" y="850" width="100" height="40" as="geometry"/>
                </mxCell>
                <mxCell id="121" value="" style="edgeStyle=none;rounded=1;html=1;noEdgeStyle=1;orthogonal=1;" parent="2" source="83" target="122" edge="1">
                    <mxGeometry relative="1" as="geometry">
                        <mxPoint x="835" y="1520" as="sourcePoint"/>
                        <Array as="points">
                            <mxPoint x="185" y="902"/>
                            <mxPoint x="85" y="928"/>
                        </Array>
                    </mxGeometry>
                </mxCell>
                <mxCell id="122" value="创建图形管线" style="whiteSpace=wrap;html=1;rounded=1;" parent="2" vertex="1">
                    <mxGeometry x="35" y="940" width="100" height="40" as="geometry"/>
                </mxCell>
                <mxCell id="123" value="" style="edgeStyle=none;rounded=1;html=1;noEdgeStyle=1;orthogonal=1;" parent="2" source="83" target="124" edge="1">
                    <mxGeometry relative="1" as="geometry">
                        <mxPoint x="815" y="1570" as="sourcePoint"/>
                        <Array as="points">
                            <mxPoint x="215" y="904"/>
                            <mxPoint x="215" y="928"/>
                        </Array>
                    </mxGeometry>
                </mxCell>
                <mxCell id="124" value="创建图形管线" style="whiteSpace=wrap;html=1;rounded=1;" parent="2" vertex="1">
                    <mxGeometry x="165" y="940" width="100" height="40" as="geometry"/>
                </mxCell>
                <mxCell id="125" value="" style="edgeStyle=none;rounded=1;html=1;noEdgeStyle=1;orthogonal=1;" parent="2" source="83" target="126" edge="1">
                    <mxGeometry relative="1" as="geometry">
                        <mxPoint x="817.5" y="1530" as="sourcePoint"/>
                        <Array as="points">
                            <mxPoint x="245" y="902"/>
                            <mxPoint x="345" y="928"/>
                        </Array>
                    </mxGeometry>
                </mxCell>
                <mxCell id="126" value="创建图形管线" style="whiteSpace=wrap;html=1;rounded=1;" parent="2" vertex="1">
                    <mxGeometry x="295" y="940" width="100" height="40" as="geometry"/>
                </mxCell>
                <mxCell id="51" value="&lt;span style=&quot;&quot;&gt;创建VK实例&lt;/span&gt;" style="swimlane;fontStyle=0;childLayout=stackLayout;horizontal=1;startSize=26;fillColor=none;horizontalStack=0;resizeParent=1;resizeParentMax=0;resizeLast=0;collapsible=1;marginBottom=0;html=1;rounded=1;" parent="1" vertex="1">
                    <mxGeometry x="920" y="220" width="200" height="78" as="geometry"/>
                </mxCell>
                <mxCell id="52" value="实例级（全局）层 layer" style="text;strokeColor=none;fillColor=none;align=left;verticalAlign=top;spacingLeft=4;spacingRight=4;overflow=hidden;rotatable=0;points=[[0,0.5],[1,0.5]];portConstraint=eastwest;whiteSpace=wrap;html=1;rounded=1;" parent="51" vertex="1">
                    <mxGeometry y="26" width="200" height="26" as="geometry"/>
                </mxCell>
                <mxCell id="53" value="实例级（全局）扩展 extension" style="text;strokeColor=none;fillColor=none;align=left;verticalAlign=top;spacingLeft=4;spacingRight=4;overflow=hidden;rotatable=0;points=[[0,0.5],[1,0.5]];portConstraint=eastwest;whiteSpace=wrap;html=1;rounded=1;" parent="51" vertex="1">
                    <mxGeometry y="52" width="200" height="26" as="geometry"/>
                </mxCell>
                <mxCell id="55" value="" style="endArrow=open;html=1;rounded=1;startArrow=none;startFill=0;endFill=0;" parent="1" source="3" target="51" edge="1">
                    <mxGeometry width="50" height="50" relative="1" as="geometry">
                        <mxPoint x="780" y="350" as="sourcePoint"/>
                        <mxPoint x="830" y="300" as="targetPoint"/>
                    </mxGeometry>
                </mxCell>
                <mxCell id="56" value="&lt;span style=&quot;&quot;&gt;创建逻辑设备&lt;/span&gt;" style="swimlane;fontStyle=0;childLayout=stackLayout;horizontal=1;startSize=26;fillColor=none;horizontalStack=0;resizeParent=1;resizeParentMax=0;resizeLast=0;collapsible=1;marginBottom=0;html=1;rounded=1;" parent="1" vertex="1">
                    <mxGeometry x="920" y="581" width="140" height="78" as="geometry"/>
                </mxCell>
                <mxCell id="57" value="设备级 层 layer" style="text;strokeColor=none;fillColor=none;align=left;verticalAlign=top;spacingLeft=4;spacingRight=4;overflow=hidden;rotatable=0;points=[[0,0.5],[1,0.5]];portConstraint=eastwest;whiteSpace=wrap;html=1;rounded=1;" parent="56" vertex="1">
                    <mxGeometry y="26" width="140" height="26" as="geometry"/>
                </mxCell>
                <mxCell id="58" value="设备级 扩展 extension" style="text;strokeColor=none;fillColor=none;align=left;verticalAlign=top;spacingLeft=4;spacingRight=4;overflow=hidden;rotatable=0;points=[[0,0.5],[1,0.5]];portConstraint=eastwest;whiteSpace=wrap;html=1;rounded=1;" parent="56" vertex="1">
                    <mxGeometry y="52" width="140" height="26" as="geometry"/>
                </mxCell>
                <mxCell id="59" value="" style="endArrow=open;html=1;rounded=1;endFill=0;" parent="1" source="33" target="56" edge="1">
                    <mxGeometry width="50" height="50" relative="1" as="geometry">
                        <mxPoint x="690" y="362.2368421052631" as="sourcePoint"/>
                        <mxPoint x="950" y="321.86842105263156" as="targetPoint"/>
                    </mxGeometry>
                </mxCell>
                <mxCell id="127" value="GPU" style="shape=umlLifeline;perimeter=lifelinePerimeter;whiteSpace=wrap;html=1;container=1;collapsible=0;recursiveResize=0;outlineConnect=0;rounded=1;" parent="1" vertex="1">
                    <mxGeometry x="1730" y="60" width="120" height="691" as="geometry"/>
                </mxCell>
                <mxCell id="140" value="" style="endArrow=none;dashed=1;html=1;strokeWidth=2;rounded=1;endFill=0;startArrow=blockThin;startFill=1;dashPattern=1 2;" parent="127" edge="1">
                    <mxGeometry width="50" height="50" relative="1" as="geometry">
                        <mxPoint x="70" y="137" as="sourcePoint"/>
                        <mxPoint x="69" y="60" as="targetPoint"/>
                    </mxGeometry>
                </mxCell>
                <mxCell id="152" value="" style="edgeStyle=none;orthogonalLoop=1;jettySize=auto;html=1;rounded=1;startArrow=blockThin;startFill=1;endArrow=none;endFill=0;" parent="127" edge="1">
                    <mxGeometry width="100" relative="1" as="geometry">
                        <mxPoint x="-65" y="141" as="sourcePoint"/>
                        <mxPoint x="70" y="140" as="targetPoint"/>
                        <Array as="points"/>
                    </mxGeometry>
                </mxCell>
                <mxCell id="156" value="" style="html=1;points=[];perimeter=orthogonalPerimeter;fillColor=#808080;rounded=1;shadow=0;glass=0;sketch=0;strokeWidth=1;" parent="127" vertex="1">
                    <mxGeometry x="60" y="171" width="20" height="79" as="geometry"/>
                </mxCell>
                <mxCell id="159" value="" style="html=1;points=[];perimeter=orthogonalPerimeter;fillColor=#808080;rounded=1;shadow=0;glass=0;sketch=0;strokeWidth=1;" parent="127" vertex="1">
                    <mxGeometry x="80" y="250" width="20" height="79" as="geometry"/>
                </mxCell>
                <mxCell id="160" value="" style="html=1;points=[];perimeter=orthogonalPerimeter;fillColor=#808080;rounded=1;shadow=0;glass=0;sketch=0;strokeWidth=1;" parent="127" vertex="1">
                    <mxGeometry x="100" y="329" width="20" height="81" as="geometry"/>
                </mxCell>
                <mxCell id="165" value="" style="endArrow=none;dashed=1;html=1;strokeWidth=2;rounded=1;endFill=0;startArrow=blockThin;startFill=1;dashPattern=1 2;" parent="127" edge="1">
                    <mxGeometry width="50" height="50" relative="1" as="geometry">
                        <mxPoint x="89.69999999999985" y="250" as="sourcePoint"/>
                        <mxPoint x="88.28999999999999" y="195" as="targetPoint"/>
                    </mxGeometry>
                </mxCell>
                <mxCell id="166" value="" style="endArrow=none;dashed=1;html=1;strokeWidth=2;rounded=1;endFill=0;startArrow=blockThin;startFill=1;dashPattern=1 2;" parent="127" edge="1">
                    <mxGeometry width="50" height="50" relative="1" as="geometry">
                        <mxPoint x="110.00000000000003" y="329" as="sourcePoint"/>
                        <mxPoint x="108.58999999999995" y="224" as="targetPoint"/>
                    </mxGeometry>
                </mxCell>
                <mxCell id="184" value="get fence" style="text;html=1;align=center;verticalAlign=middle;resizable=0;points=[];autosize=1;strokeColor=none;fillColor=none;" parent="127" vertex="1">
                    <mxGeometry x="-10" y="311" width="70" height="30" as="geometry"/>
                </mxCell>
                <mxCell id="141" value="get fence" style="text;html=1;align=center;verticalAlign=middle;resizable=0;points=[];autosize=1;strokeColor=none;fillColor=none;" parent="127" vertex="1">
                    <mxGeometry x="-10" y="119" width="70" height="30" as="geometry"/>
                </mxCell>
                <mxCell id="186" value="" style="html=1;points=[];perimeter=orthogonalPerimeter;fillColor=#808080;rounded=1;shadow=0;glass=0;sketch=0;strokeWidth=1;" parent="127" vertex="1">
                    <mxGeometry x="60" y="351" width="20" height="59" as="geometry"/>
                </mxCell>
                <mxCell id="187" value="" style="edgeStyle=none;orthogonalLoop=1;jettySize=auto;html=1;rounded=1;startArrow=none;startFill=0;endArrow=none;endFill=0;dashed=1;" parent="127" edge="1">
                    <mxGeometry width="100" relative="1" as="geometry">
                        <mxPoint x="60" y="410" as="sourcePoint"/>
                        <mxPoint x="170" y="411" as="targetPoint"/>
                        <Array as="points"/>
                    </mxGeometry>
                </mxCell>
                <mxCell id="189" value="" style="html=1;points=[];perimeter=orthogonalPerimeter;fillColor=#808080;rounded=1;shadow=0;glass=0;sketch=0;strokeWidth=1;" parent="127" vertex="1">
                    <mxGeometry x="80" y="410" width="20" height="120" as="geometry"/>
                </mxCell>
                <mxCell id="191" value="" style="endArrow=none;dashed=1;html=1;strokeWidth=2;rounded=1;endFill=0;startArrow=blockThin;startFill=1;dashPattern=1 2;" parent="127" edge="1">
                    <mxGeometry width="50" height="50" relative="1" as="geometry">
                        <mxPoint x="89.8599999999999" y="410" as="sourcePoint"/>
                        <mxPoint x="90" y="381" as="targetPoint"/>
                    </mxGeometry>
                </mxCell>
                <mxCell id="193" value="" style="html=1;points=[];perimeter=orthogonalPerimeter;fillColor=#808080;rounded=1;shadow=0;glass=0;sketch=0;strokeWidth=1;" parent="127" vertex="1">
                    <mxGeometry x="100" y="530" width="20" height="83" as="geometry"/>
                </mxCell>
                <mxCell id="195" value="" style="endArrow=none;dashed=1;html=1;strokeWidth=2;rounded=1;endFill=0;startArrow=blockThin;startFill=1;dashPattern=1 2;exitX=0.45;exitY=0;exitDx=0;exitDy=0;exitPerimeter=0;" parent="127" source="193" edge="1">
                    <mxGeometry width="50" height="50" relative="1" as="geometry">
                        <mxPoint x="109.8299999999997" y="489" as="sourcePoint"/>
                        <mxPoint x="109" y="428" as="targetPoint"/>
                    </mxGeometry>
                </mxCell>
                <mxCell id="202" value="get fence" style="text;html=1;align=center;verticalAlign=middle;resizable=0;points=[];autosize=1;strokeColor=none;fillColor=none;" parent="127" vertex="1">
                    <mxGeometry x="-10" y="511" width="70" height="30" as="geometry"/>
                </mxCell>
                <mxCell id="204" value="" style="endArrow=none;dashed=1;html=1;strokeWidth=2;rounded=1;endFill=0;startArrow=blockThin;startFill=1;dashPattern=1 2;" parent="127" edge="1">
                    <mxGeometry width="50" height="50" relative="1" as="geometry">
                        <mxPoint x="69.81999999999971" y="530" as="sourcePoint"/>
                        <mxPoint x="69" y="485" as="targetPoint"/>
                    </mxGeometry>
                </mxCell>
                <mxCell id="210" value="" style="html=1;points=[];perimeter=orthogonalPerimeter;fillColor=#808080;rounded=1;shadow=0;glass=0;sketch=0;strokeWidth=1;" parent="127" vertex="1">
                    <mxGeometry x="60" y="551" width="20" height="62" as="geometry"/>
                </mxCell>
                <mxCell id="129" value="CPU" style="shape=umlLifeline;perimeter=lifelinePerimeter;whiteSpace=wrap;html=1;container=1;collapsible=0;recursiveResize=0;outlineConnect=0;rounded=1;" parent="1" vertex="1">
                    <mxGeometry x="1610" y="60" width="100" height="691" as="geometry"/>
                </mxCell>
                <mxCell id="130" value="" style="html=1;points=[];perimeter=orthogonalPerimeter;rounded=1;" parent="129" vertex="1">
                    <mxGeometry x="45" y="90" width="10" height="160" as="geometry"/>
                </mxCell>
                <mxCell id="162" value="" style="edgeStyle=none;orthogonalLoop=1;jettySize=auto;html=1;rounded=1;startArrow=blockThin;startFill=1;endArrow=none;endFill=0;" parent="129" target="161" edge="1">
                    <mxGeometry width="100" relative="1" as="geometry">
                        <mxPoint x="208" y="196" as="sourcePoint"/>
                        <mxPoint x="71" y="194" as="targetPoint"/>
                        <Array as="points"/>
                    </mxGeometry>
                </mxCell>
                <mxCell id="190" value="" style="edgeStyle=none;orthogonalLoop=1;jettySize=auto;html=1;rounded=1;startArrow=blockThin;startFill=1;endArrow=none;endFill=0;" parent="129" edge="1">
                    <mxGeometry width="100" relative="1" as="geometry">
                        <mxPoint x="210" y="381" as="sourcePoint"/>
                        <mxPoint x="45" y="381.00000000000006" as="targetPoint"/>
                        <Array as="points"/>
                    </mxGeometry>
                </mxCell>
                <mxCell id="179" value="queue present" style="text;html=1;align=center;verticalAlign=middle;resizable=0;points=[];autosize=1;strokeColor=none;fillColor=none;" parent="129" vertex="1">
                    <mxGeometry x="-55" y="411" width="100" height="30" as="geometry"/>
                </mxCell>
                <mxCell id="203" value="" style="edgeStyle=none;orthogonalLoop=1;jettySize=auto;html=1;rounded=1;startArrow=blockThin;startFill=1;endArrow=none;endFill=0;" parent="129" edge="1">
                    <mxGeometry width="100" relative="1" as="geometry">
                        <mxPoint x="45.00000000000023" y="532" as="sourcePoint"/>
                        <mxPoint x="180" y="531" as="targetPoint"/>
                        <Array as="points"/>
                    </mxGeometry>
                </mxCell>
                <mxCell id="136" value="loop 1" style="strokeWidth=2;html=1;shape=mxgraph.flowchart.annotation_1;align=left;pointerEvents=1;rounded=1;horizontal=1;verticalAlign=middle;spacing=-42;" parent="1" vertex="1">
                    <mxGeometry x="1550" y="151" width="20" height="160" as="geometry"/>
                </mxCell>
                <mxCell id="133" value="wait for fence" style="text;html=1;align=center;verticalAlign=middle;resizable=0;points=[];autosize=1;strokeColor=none;fillColor=none;" parent="1" vertex="1">
                    <mxGeometry x="1564" y="156" width="90" height="30" as="geometry"/>
                </mxCell>
                <mxCell id="147" value="acquire image" style="text;html=1;align=center;verticalAlign=middle;resizable=0;points=[];autosize=1;strokeColor=none;fillColor=none;" parent="1" vertex="1">
                    <mxGeometry x="1559" y="216" width="100" height="30" as="geometry"/>
                </mxCell>
                <mxCell id="151" value="" style="edgeStyle=none;orthogonalLoop=1;jettySize=auto;html=1;rounded=1;startArrow=blockThin;startFill=1;endArrow=none;endFill=0;" parent="1" target="133" edge="1">
                    <mxGeometry width="100" relative="1" as="geometry">
                        <mxPoint x="1780" y="171" as="sourcePoint"/>
                        <mxPoint x="1760" y="201" as="targetPoint"/>
                        <Array as="points"/>
                    </mxGeometry>
                </mxCell>
                <mxCell id="153" value="" style="edgeStyle=none;orthogonalLoop=1;jettySize=auto;html=1;rounded=1;startArrow=blockThin;startFill=1;endArrow=none;endFill=0;" parent="1" target="147" edge="1">
                    <mxGeometry width="100" relative="1" as="geometry">
                        <mxPoint x="1800" y="231" as="sourcePoint"/>
                        <mxPoint x="1681" y="229" as="targetPoint"/>
                        <Array as="points"/>
                    </mxGeometry>
                </mxCell>
                <mxCell id="163" value="queue present" style="text;html=1;align=center;verticalAlign=middle;resizable=0;points=[];autosize=1;strokeColor=none;fillColor=none;" parent="1" vertex="1">
                    <mxGeometry x="1559" y="270.5" width="100" height="30" as="geometry"/>
                </mxCell>
                <mxCell id="164" value="" style="edgeStyle=none;orthogonalLoop=1;jettySize=auto;html=1;rounded=1;startArrow=blockThin;startFill=1;endArrow=none;endFill=0;" parent="1" target="163" edge="1">
                    <mxGeometry width="100" relative="1" as="geometry">
                        <mxPoint x="1838" y="286" as="sourcePoint"/>
                        <mxPoint x="91" y="174.5" as="targetPoint"/>
                        <Array as="points"/>
                    </mxGeometry>
                </mxCell>
                <mxCell id="161" value="submit cmd" style="text;html=1;align=center;verticalAlign=middle;resizable=0;points=[];autosize=1;strokeColor=none;fillColor=none;" parent="1" vertex="1">
                    <mxGeometry x="1569" y="241" width="80" height="30" as="geometry"/>
                </mxCell>
                <mxCell id="175" value="" style="html=1;points=[];perimeter=orthogonalPerimeter;rounded=1;" parent="1" vertex="1">
                    <mxGeometry x="1655" y="331" width="10" height="180" as="geometry"/>
                </mxCell>
                <mxCell id="176" value="loop 2" style="strokeWidth=2;html=1;shape=mxgraph.flowchart.annotation_1;align=left;pointerEvents=1;rounded=1;horizontal=1;verticalAlign=middle;spacing=-42;" parent="1" vertex="1">
                    <mxGeometry x="1550" y="332" width="20" height="179" as="geometry"/>
                </mxCell>
                <mxCell id="177" value="wait for fence" style="text;html=1;align=center;verticalAlign=middle;resizable=0;points=[];autosize=1;strokeColor=none;fillColor=none;" parent="1" vertex="1">
                    <mxGeometry x="1564" y="337" width="90" height="30" as="geometry"/>
                </mxCell>
                <mxCell id="178" value="acquire image" style="text;html=1;align=center;verticalAlign=middle;resizable=0;points=[];autosize=1;strokeColor=none;fillColor=none;" parent="1" vertex="1">
                    <mxGeometry x="1559" y="397" width="100" height="30" as="geometry"/>
                </mxCell>
                <mxCell id="180" value="submit cmd" style="text;html=1;align=center;verticalAlign=middle;resizable=0;points=[];autosize=1;strokeColor=none;fillColor=none;" parent="1" vertex="1">
                    <mxGeometry x="1569" y="427" width="80" height="30" as="geometry"/>
                </mxCell>
                <mxCell id="181" value="" style="edgeStyle=none;orthogonalLoop=1;jettySize=auto;html=1;rounded=1;startArrow=blockThin;startFill=1;endArrow=none;endFill=0;" parent="1" edge="1">
                    <mxGeometry width="100" relative="1" as="geometry">
                        <mxPoint x="1781" y="354" as="sourcePoint"/>
                        <mxPoint x="1655" y="354" as="targetPoint"/>
                        <Array as="points"/>
                    </mxGeometry>
                </mxCell>
                <mxCell id="182" value="" style="endArrow=none;dashed=1;html=1;strokeWidth=2;rounded=1;endFill=0;startArrow=blockThin;startFill=1;dashPattern=1 2;" parent="1" edge="1">
                    <mxGeometry width="50" height="50" relative="1" as="geometry">
                        <mxPoint x="1798" y="390" as="sourcePoint"/>
                        <mxPoint x="1798" y="351" as="targetPoint"/>
                    </mxGeometry>
                </mxCell>
                <mxCell id="183" value="" style="edgeStyle=none;orthogonalLoop=1;jettySize=auto;html=1;rounded=1;startArrow=blockThin;startFill=1;endArrow=none;endFill=0;" parent="1" edge="1">
                    <mxGeometry width="100" relative="1" as="geometry">
                        <mxPoint x="1664.0000000000002" y="392" as="sourcePoint"/>
                        <mxPoint x="1799" y="391" as="targetPoint"/>
                        <Array as="points"/>
                    </mxGeometry>
                </mxCell>
                <mxCell id="185" value="" style="edgeStyle=none;orthogonalLoop=1;jettySize=auto;html=1;rounded=1;startArrow=blockThin;startFill=1;endArrow=none;endFill=0;" parent="1" edge="1">
                    <mxGeometry width="100" relative="1" as="geometry">
                        <mxPoint x="1799.9999999999998" y="411.83000000000004" as="sourcePoint"/>
                        <mxPoint x="1659" y="411.83000000000004" as="targetPoint"/>
                        <Array as="points"/>
                    </mxGeometry>
                </mxCell>
                <mxCell id="188" value="engine has already fully&lt;br&gt;read the image&amp;nbsp;" style="text;html=1;align=center;verticalAlign=middle;resizable=0;points=[];autosize=1;strokeColor=none;fillColor=none;rounded=1;shadow=0;glass=0;sketch=0;strokeWidth=1;" parent="1" vertex="1">
                    <mxGeometry x="1869" y="448" width="150" height="40" as="geometry"/>
                </mxCell>
                <mxCell id="194" value="" style="edgeStyle=none;orthogonalLoop=1;jettySize=auto;html=1;rounded=1;startArrow=blockThin;startFill=1;endArrow=none;endFill=0;" parent="1" edge="1">
                    <mxGeometry width="100" relative="1" as="geometry">
                        <mxPoint x="1839" y="488" as="sourcePoint"/>
                        <mxPoint x="1659" y="488" as="targetPoint"/>
                        <Array as="points"/>
                    </mxGeometry>
                </mxCell>
                <mxCell id="196" value="" style="html=1;points=[];perimeter=orthogonalPerimeter;rounded=1;" parent="1" vertex="1">
                    <mxGeometry x="1655" y="532" width="10" height="179" as="geometry"/>
                </mxCell>
                <mxCell id="197" value="loop 3" style="strokeWidth=2;html=1;shape=mxgraph.flowchart.annotation_1;align=left;pointerEvents=1;rounded=1;horizontal=1;verticalAlign=middle;spacing=-42;" parent="1" vertex="1">
                    <mxGeometry x="1550" y="533" width="20" height="178" as="geometry"/>
                </mxCell>
                <mxCell id="200" value="wait for fence" style="text;html=1;align=center;verticalAlign=middle;resizable=0;points=[];autosize=1;strokeColor=none;fillColor=none;" parent="1" vertex="1">
                    <mxGeometry x="1558" y="529" width="90" height="30" as="geometry"/>
                </mxCell>
                <mxCell id="201" value="" style="edgeStyle=none;orthogonalLoop=1;jettySize=auto;html=1;rounded=1;startArrow=blockThin;startFill=1;endArrow=none;endFill=0;" parent="1" edge="1">
                    <mxGeometry width="100" relative="1" as="geometry">
                        <mxPoint x="1786" y="546" as="sourcePoint"/>
                        <mxPoint x="1660" y="546" as="targetPoint"/>
                        <Array as="points"/>
                    </mxGeometry>
                </mxCell>
                <mxCell id="206" value="" style="edgeStyle=none;orthogonalLoop=1;jettySize=auto;html=1;rounded=1;startArrow=none;startFill=0;endArrow=none;endFill=0;dashed=1;" parent="1" edge="1">
                    <mxGeometry width="100" relative="1" as="geometry">
                        <mxPoint x="1790" y="673" as="sourcePoint"/>
                        <mxPoint x="1900" y="674" as="targetPoint"/>
                        <Array as="points"/>
                    </mxGeometry>
                </mxCell>
                <mxCell id="207" value="engine has already fully&lt;br&gt;read the image&amp;nbsp;" style="text;html=1;align=center;verticalAlign=middle;resizable=0;points=[];autosize=1;strokeColor=none;fillColor=none;rounded=1;shadow=0;glass=0;sketch=0;strokeWidth=1;" parent="1" vertex="1">
                    <mxGeometry x="1869" y="651" width="150" height="40" as="geometry"/>
                </mxCell>
                <mxCell id="208" value="acquire image" style="text;html=1;align=center;verticalAlign=middle;resizable=0;points=[];autosize=1;strokeColor=none;fillColor=none;" parent="1" vertex="1">
                    <mxGeometry x="1559" y="595" width="100" height="30" as="geometry"/>
                </mxCell>
                <mxCell id="209" value="" style="edgeStyle=none;orthogonalLoop=1;jettySize=auto;html=1;rounded=1;startArrow=blockThin;startFill=1;endArrow=none;endFill=0;" parent="1" edge="1">
                    <mxGeometry width="100" relative="1" as="geometry">
                        <mxPoint x="1788" y="610.9999999999999" as="sourcePoint"/>
                        <mxPoint x="1662.0000000000002" y="610.9999999999999" as="targetPoint"/>
                        <Array as="points"/>
                    </mxGeometry>
                </mxCell>
                <mxCell id="212" value="......" style="text;html=1;align=center;verticalAlign=middle;resizable=0;points=[];autosize=1;strokeColor=none;fillColor=none;rotation=90;" parent="1" vertex="1">
                    <mxGeometry x="1587" y="631" width="40" height="30" as="geometry"/>
                </mxCell>
                <mxCell id="213" value="" style="edgeStyle=none;orthogonalLoop=1;jettySize=auto;html=1;rounded=1;startArrow=none;startFill=0;endArrow=none;endFill=0;dashed=1;" parent="1" edge="1">
                    <mxGeometry width="100" relative="1" as="geometry">
                        <mxPoint x="1810" y="389" as="sourcePoint"/>
                        <mxPoint x="1920" y="390" as="targetPoint"/>
                        <Array as="points"/>
                    </mxGeometry>
                </mxCell>
                <mxCell id="214" value="finished all the rendering cmd,&amp;nbsp;&lt;br&gt;and release fence" style="text;html=1;align=center;verticalAlign=middle;resizable=0;points=[];autosize=1;strokeColor=none;fillColor=none;rounded=1;shadow=0;glass=0;sketch=0;strokeWidth=1;" parent="1" vertex="1">
                    <mxGeometry x="1880" y="367" width="190" height="40" as="geometry"/>
                </mxCell>
                <mxCell id="215" value="" style="edgeStyle=none;orthogonalLoop=1;jettySize=auto;html=1;rounded=1;startArrow=none;startFill=0;endArrow=none;endFill=0;dashed=1;" parent="1" edge="1">
                    <mxGeometry width="100" relative="1" as="geometry">
                        <mxPoint x="1811" y="590" as="sourcePoint"/>
                        <mxPoint x="1921" y="591" as="targetPoint"/>
                        <Array as="points"/>
                    </mxGeometry>
                </mxCell>
                <mxCell id="216" value="finished all the rendering cmd,&amp;nbsp;&lt;br&gt;and release fence" style="text;html=1;align=center;verticalAlign=middle;resizable=0;points=[];autosize=1;strokeColor=none;fillColor=none;rounded=1;shadow=0;glass=0;sketch=0;strokeWidth=1;" parent="1" vertex="1">
                    <mxGeometry x="1881" y="568" width="190" height="40" as="geometry"/>
                </mxCell>
                <mxCell id="217" value="" style="edgeStyle=none;orthogonalLoop=1;jettySize=auto;html=1;rounded=1;startArrow=none;startFill=0;endArrow=none;endFill=0;dashed=1;" parent="1" edge="1">
                    <mxGeometry width="100" relative="1" as="geometry">
                        <mxPoint x="1802" y="200" as="sourcePoint"/>
                        <mxPoint x="1912" y="201" as="targetPoint"/>
                        <Array as="points"/>
                    </mxGeometry>
                </mxCell>
                <mxCell id="218" value="finished all the rendering cmd,&amp;nbsp;&lt;br&gt;and release fence" style="text;html=1;align=center;verticalAlign=middle;resizable=0;points=[];autosize=1;strokeColor=none;fillColor=none;rounded=1;shadow=0;glass=0;sketch=0;strokeWidth=1;" parent="1" vertex="1">
                    <mxGeometry x="1872" y="178" width="190" height="40" as="geometry"/>
                </mxCell>
                <mxCell id="219" value="" style="edgeStyle=none;orthogonalLoop=1;jettySize=auto;html=1;rounded=1;startArrow=none;startFill=0;endArrow=none;endFill=0;dashed=1;" parent="1" edge="1">
                    <mxGeometry width="100" relative="1" as="geometry">
                        <mxPoint x="1789" y="311" as="sourcePoint"/>
                        <mxPoint x="1899" y="312" as="targetPoint"/>
                        <Array as="points"/>
                    </mxGeometry>
                </mxCell>
                <mxCell id="220" value="engine has already fully&lt;br&gt;read the image&amp;nbsp;" style="text;html=1;align=center;verticalAlign=middle;resizable=0;points=[];autosize=1;strokeColor=none;fillColor=none;rounded=1;shadow=0;glass=0;sketch=0;strokeWidth=1;" parent="1" vertex="1">
                    <mxGeometry x="1868" y="289" width="150" height="40" as="geometry"/>
                </mxCell>
                <mxCell id="282" value="GPU" style="shape=umlLifeline;perimeter=lifelinePerimeter;whiteSpace=wrap;html=1;container=1;collapsible=0;recursiveResize=0;outlineConnect=0;rounded=1;" parent="1" vertex="1">
                    <mxGeometry x="2903" y="160" width="120" height="973" as="geometry"/>
                </mxCell>
                <mxCell id="355" value="" style="edgeStyle=none;orthogonalLoop=1;jettySize=auto;html=1;rounded=1;startArrow=blockThin;startFill=1;endArrow=none;endFill=0;" parent="282" edge="1">
                    <mxGeometry width="100" relative="1" as="geometry">
                        <mxPoint x="-63" y="323" as="sourcePoint"/>
                        <mxPoint x="170" y="322" as="targetPoint"/>
                        <Array as="points"/>
                    </mxGeometry>
                </mxCell>
                <mxCell id="283" value="" style="endArrow=none;dashed=1;html=1;strokeWidth=2;rounded=1;endFill=0;startArrow=blockThin;startFill=1;dashPattern=1 2;" parent="282" edge="1">
                    <mxGeometry width="50" height="50" relative="1" as="geometry">
                        <mxPoint x="70" y="137" as="sourcePoint"/>
                        <mxPoint x="70" y="92" as="targetPoint"/>
                    </mxGeometry>
                </mxCell>
                <mxCell id="284" value="" style="edgeStyle=none;orthogonalLoop=1;jettySize=auto;html=1;rounded=1;startArrow=blockThin;startFill=1;endArrow=none;endFill=0;" parent="282" edge="1">
                    <mxGeometry width="100" relative="1" as="geometry">
                        <mxPoint x="-65" y="141" as="sourcePoint"/>
                        <mxPoint x="70" y="140" as="targetPoint"/>
                        <Array as="points"/>
                    </mxGeometry>
                </mxCell>
                <mxCell id="285" value="" style="html=1;points=[];perimeter=orthogonalPerimeter;fillColor=#808080;rounded=1;shadow=0;glass=0;sketch=0;strokeWidth=1;" parent="282" vertex="1">
                    <mxGeometry x="60" y="172" width="20" height="199" as="geometry"/>
                </mxCell>
                <mxCell id="286" value="" style="html=1;points=[];perimeter=orthogonalPerimeter;fillColor=#808080;rounded=1;shadow=0;glass=0;sketch=0;strokeWidth=1;" parent="282" vertex="1">
                    <mxGeometry x="80" y="371" width="20" height="200" as="geometry"/>
                </mxCell>
                <mxCell id="287" value="" style="html=1;points=[];perimeter=orthogonalPerimeter;fillColor=#808080;rounded=1;shadow=0;glass=0;sketch=0;strokeWidth=1;" parent="282" vertex="1">
                    <mxGeometry x="100" y="571" width="20" height="201" as="geometry"/>
                </mxCell>
                <mxCell id="288" value="" style="endArrow=none;dashed=1;html=1;strokeWidth=2;rounded=1;endFill=0;startArrow=blockThin;startFill=1;dashPattern=1 2;" parent="282" edge="1">
                    <mxGeometry width="50" height="50" relative="1" as="geometry">
                        <mxPoint x="91" y="368" as="sourcePoint"/>
                        <mxPoint x="88.28999999999999" y="195" as="targetPoint"/>
                    </mxGeometry>
                </mxCell>
                <mxCell id="289" value="" style="endArrow=none;dashed=1;html=1;strokeWidth=2;rounded=1;endFill=0;startArrow=blockThin;startFill=1;dashPattern=1 2;" parent="282" edge="1">
                    <mxGeometry width="50" height="50" relative="1" as="geometry">
                        <mxPoint x="110" y="569" as="sourcePoint"/>
                        <mxPoint x="108.58999999999995" y="224" as="targetPoint"/>
                    </mxGeometry>
                </mxCell>
                <mxCell id="291" value="get fence" style="text;html=1;align=center;verticalAlign=middle;resizable=0;points=[];autosize=1;strokeColor=none;fillColor=none;" parent="282" vertex="1">
                    <mxGeometry x="-10" y="119" width="70" height="30" as="geometry"/>
                </mxCell>
                <mxCell id="344" value="buffer 1" style="whiteSpace=wrap;html=1;rounded=1;shadow=0;glass=0;sketch=0;strokeWidth=1;" parent="282" vertex="1">
                    <mxGeometry x="60" y="62" width="60" height="30" as="geometry"/>
                </mxCell>
                <mxCell id="356" value="get fence" style="text;html=1;align=center;verticalAlign=middle;resizable=0;points=[];autosize=1;strokeColor=none;fillColor=none;" parent="282" vertex="1">
                    <mxGeometry x="-20" y="302" width="70" height="30" as="geometry"/>
                </mxCell>
                <mxCell id="376" value="" style="html=1;points=[];perimeter=orthogonalPerimeter;fillColor=#808080;rounded=1;shadow=0;glass=0;sketch=0;strokeWidth=1;" parent="282" vertex="1">
                    <mxGeometry x="60" y="592" width="20" height="180" as="geometry"/>
                </mxCell>
                <mxCell id="378" value="" style="endArrow=none;dashed=1;html=1;strokeWidth=2;rounded=1;endFill=0;startArrow=blockThin;startFill=1;dashPattern=1 2;" parent="282" edge="1">
                    <mxGeometry width="50" height="50" relative="1" as="geometry">
                        <mxPoint x="91" y="772" as="sourcePoint"/>
                        <mxPoint x="89.30000000000018" y="616" as="targetPoint"/>
                    </mxGeometry>
                </mxCell>
                <mxCell id="379" value="" style="html=1;points=[];perimeter=orthogonalPerimeter;fillColor=#808080;rounded=1;shadow=0;glass=0;sketch=0;strokeWidth=1;" parent="282" vertex="1">
                    <mxGeometry x="80" y="772" width="20" height="201" as="geometry"/>
                </mxCell>
                <mxCell id="381" value="" style="endArrow=none;dashed=1;html=1;strokeWidth=2;rounded=1;endFill=0;startArrow=blockThin;startFill=1;dashPattern=1 2;" parent="282" edge="1">
                    <mxGeometry width="50" height="50" relative="1" as="geometry">
                        <mxPoint x="110" y="972" as="sourcePoint"/>
                        <mxPoint x="109.15000000000009" y="652" as="targetPoint"/>
                    </mxGeometry>
                </mxCell>
                <mxCell id="301" value="CPU" style="shape=umlLifeline;perimeter=lifelinePerimeter;whiteSpace=wrap;html=1;container=1;collapsible=0;recursiveResize=0;outlineConnect=0;rounded=1;" parent="1" vertex="1">
                    <mxGeometry x="2783" y="160" width="100" height="932" as="geometry"/>
                </mxCell>
                <mxCell id="302" value="" style="html=1;points=[];perimeter=orthogonalPerimeter;rounded=1;" parent="301" vertex="1">
                    <mxGeometry x="45" y="90" width="10" height="160" as="geometry"/>
                </mxCell>
                <mxCell id="303" value="" style="edgeStyle=none;orthogonalLoop=1;jettySize=auto;html=1;rounded=1;startArrow=blockThin;startFill=1;endArrow=none;endFill=0;" parent="301" target="314" edge="1">
                    <mxGeometry width="100" relative="1" as="geometry">
                        <mxPoint x="208" y="196" as="sourcePoint"/>
                        <mxPoint x="71" y="194" as="targetPoint"/>
                        <Array as="points"/>
                    </mxGeometry>
                </mxCell>
                <mxCell id="346" value="" style="html=1;points=[];perimeter=orthogonalPerimeter;rounded=1;" parent="301" vertex="1">
                    <mxGeometry x="45" y="272" width="10" height="160" as="geometry"/>
                </mxCell>
                <mxCell id="365" value="" style="html=1;points=[];perimeter=orthogonalPerimeter;rounded=1;" parent="301" vertex="1">
                    <mxGeometry x="45" y="452" width="10" height="218" as="geometry"/>
                </mxCell>
                <mxCell id="366" value="loop 3" style="strokeWidth=2;html=1;shape=mxgraph.flowchart.annotation_1;align=left;pointerEvents=1;rounded=1;horizontal=1;verticalAlign=middle;spacing=-42;" parent="301" vertex="1">
                    <mxGeometry x="-61" y="453.5" width="20" height="216.5" as="geometry"/>
                </mxCell>
                <mxCell id="383" value="" style="html=1;points=[];perimeter=orthogonalPerimeter;rounded=1;" parent="301" vertex="1">
                    <mxGeometry x="45" y="692" width="10" height="158" as="geometry"/>
                </mxCell>
                <mxCell id="307" value="loop 1" style="strokeWidth=2;html=1;shape=mxgraph.flowchart.annotation_1;align=left;pointerEvents=1;rounded=1;horizontal=1;verticalAlign=middle;spacing=-42;" parent="1" vertex="1">
                    <mxGeometry x="2723" y="251" width="20" height="160" as="geometry"/>
                </mxCell>
                <mxCell id="308" value="wait for fence" style="text;html=1;align=center;verticalAlign=middle;resizable=0;points=[];autosize=1;strokeColor=none;fillColor=none;" parent="1" vertex="1">
                    <mxGeometry x="2737" y="256" width="90" height="30" as="geometry"/>
                </mxCell>
                <mxCell id="309" value="acquire image" style="text;html=1;align=center;verticalAlign=middle;resizable=0;points=[];autosize=1;strokeColor=none;fillColor=none;" parent="1" vertex="1">
                    <mxGeometry x="2732" y="316" width="100" height="30" as="geometry"/>
                </mxCell>
                <mxCell id="310" value="" style="edgeStyle=none;orthogonalLoop=1;jettySize=auto;html=1;rounded=1;startArrow=blockThin;startFill=1;endArrow=none;endFill=0;" parent="1" target="308" edge="1">
                    <mxGeometry width="100" relative="1" as="geometry">
                        <mxPoint x="2953" y="271" as="sourcePoint"/>
                        <mxPoint x="2933" y="301" as="targetPoint"/>
                        <Array as="points"/>
                    </mxGeometry>
                </mxCell>
                <mxCell id="311" value="" style="edgeStyle=none;orthogonalLoop=1;jettySize=auto;html=1;rounded=1;startArrow=blockThin;startFill=1;endArrow=none;endFill=0;" parent="1" target="309" edge="1">
                    <mxGeometry width="100" relative="1" as="geometry">
                        <mxPoint x="2973" y="331" as="sourcePoint"/>
                        <mxPoint x="2854" y="329" as="targetPoint"/>
                        <Array as="points"/>
                    </mxGeometry>
                </mxCell>
                <mxCell id="312" value="queue present" style="text;html=1;align=center;verticalAlign=middle;resizable=0;points=[];autosize=1;strokeColor=none;fillColor=none;" parent="1" vertex="1">
                    <mxGeometry x="2732" y="370.5" width="100" height="30" as="geometry"/>
                </mxCell>
                <mxCell id="313" value="" style="edgeStyle=none;orthogonalLoop=1;jettySize=auto;html=1;rounded=1;startArrow=blockThin;startFill=1;endArrow=none;endFill=0;" parent="1" target="312" edge="1">
                    <mxGeometry width="100" relative="1" as="geometry">
                        <mxPoint x="3011" y="386" as="sourcePoint"/>
                        <mxPoint x="1264" y="274.5" as="targetPoint"/>
                        <Array as="points"/>
                    </mxGeometry>
                </mxCell>
                <mxCell id="314" value="submit cmd" style="text;html=1;align=center;verticalAlign=middle;resizable=0;points=[];autosize=1;strokeColor=none;fillColor=none;" parent="1" vertex="1">
                    <mxGeometry x="2742" y="341" width="80" height="30" as="geometry"/>
                </mxCell>
                <mxCell id="345" value="buffer 2" style="whiteSpace=wrap;html=1;rounded=1;shadow=0;glass=0;sketch=0;strokeWidth=1;" parent="1" vertex="1">
                    <mxGeometry x="3063" y="221" width="60" height="30" as="geometry"/>
                </mxCell>
                <mxCell id="347" value="loop 2" style="strokeWidth=2;html=1;shape=mxgraph.flowchart.annotation_1;align=left;pointerEvents=1;rounded=1;horizontal=1;verticalAlign=middle;spacing=-42;" parent="1" vertex="1">
                    <mxGeometry x="2722" y="433.5" width="20" height="160" as="geometry"/>
                </mxCell>
                <mxCell id="348" value="acquire image" style="text;html=1;align=center;verticalAlign=middle;resizable=0;points=[];autosize=1;strokeColor=none;fillColor=none;" parent="1" vertex="1">
                    <mxGeometry x="2732" y="495.5" width="100" height="30" as="geometry"/>
                </mxCell>
                <mxCell id="349" value="queue present" style="text;html=1;align=center;verticalAlign=middle;resizable=0;points=[];autosize=1;strokeColor=none;fillColor=none;" parent="1" vertex="1">
                    <mxGeometry x="2732" y="550" width="100" height="30" as="geometry"/>
                </mxCell>
                <mxCell id="350" value="submit cmd" style="text;html=1;align=center;verticalAlign=middle;resizable=0;points=[];autosize=1;strokeColor=none;fillColor=none;" parent="1" vertex="1">
                    <mxGeometry x="2742" y="520.5" width="80" height="30" as="geometry"/>
                </mxCell>
                <mxCell id="351" value="wait for fence" style="text;html=1;align=center;verticalAlign=middle;resizable=0;points=[];autosize=1;strokeColor=none;fillColor=none;" parent="1" vertex="1">
                    <mxGeometry x="2737" y="442" width="90" height="30" as="geometry"/>
                </mxCell>
                <mxCell id="352" value="" style="edgeStyle=none;orthogonalLoop=1;jettySize=auto;html=1;rounded=1;startArrow=blockThin;startFill=1;endArrow=none;endFill=0;" parent="1" edge="1">
                    <mxGeometry width="100" relative="1" as="geometry">
                        <mxPoint x="2958" y="458" as="sourcePoint"/>
                        <mxPoint x="2832" y="458" as="targetPoint"/>
                        <Array as="points"/>
                    </mxGeometry>
                </mxCell>
                <mxCell id="353" value="" style="endArrow=none;dashed=1;html=1;strokeWidth=2;rounded=1;endFill=0;startArrow=blockThin;startFill=1;dashPattern=1 2;" parent="1" edge="1">
                    <mxGeometry width="50" height="50" relative="1" as="geometry">
                        <mxPoint x="3073" y="481" as="sourcePoint"/>
                        <mxPoint x="3072" y="410" as="targetPoint"/>
                    </mxGeometry>
                </mxCell>
                <mxCell id="357" value="" style="edgeStyle=none;orthogonalLoop=1;jettySize=auto;html=1;rounded=1;startArrow=blockThin;startFill=1;endArrow=none;endFill=0;" parent="1" edge="1">
                    <mxGeometry width="100" relative="1" as="geometry">
                        <mxPoint x="3062" y="512" as="sourcePoint"/>
                        <mxPoint x="2832.9999999999995" y="513.0000000000001" as="targetPoint"/>
                        <Array as="points"/>
                    </mxGeometry>
                </mxCell>
                <mxCell id="358" value="" style="html=1;points=[];perimeter=orthogonalPerimeter;fillColor=#808080;rounded=1;shadow=0;glass=0;sketch=0;strokeWidth=1;" parent="1" vertex="1">
                    <mxGeometry x="3063" y="512" width="20" height="199" as="geometry"/>
                </mxCell>
                <mxCell id="359" value="" style="html=1;points=[];perimeter=orthogonalPerimeter;fillColor=#808080;rounded=1;shadow=0;glass=0;sketch=0;strokeWidth=1;" parent="1" vertex="1">
                    <mxGeometry x="3083" y="711" width="20" height="200" as="geometry"/>
                </mxCell>
                <mxCell id="360" value="" style="html=1;points=[];perimeter=orthogonalPerimeter;fillColor=#808080;rounded=1;shadow=0;glass=0;sketch=0;strokeWidth=1;" parent="1" vertex="1">
                    <mxGeometry x="3103" y="911" width="20" height="200" as="geometry"/>
                </mxCell>
                <mxCell id="361" value="" style="endArrow=none;dashed=1;html=1;strokeWidth=2;rounded=1;endFill=0;startArrow=blockThin;startFill=1;dashPattern=1 2;" parent="1" edge="1">
                    <mxGeometry width="50" height="50" relative="1" as="geometry">
                        <mxPoint x="3094.36" y="711" as="sourcePoint"/>
                        <mxPoint x="3091.65" y="538" as="targetPoint"/>
                    </mxGeometry>
                </mxCell>
                <mxCell id="362" value="" style="endArrow=none;dashed=1;html=1;strokeWidth=2;rounded=1;endFill=0;startArrow=blockThin;startFill=1;dashPattern=1 2;" parent="1" edge="1">
                    <mxGeometry width="50" height="50" relative="1" as="geometry">
                        <mxPoint x="3113.71" y="910.5" as="sourcePoint"/>
                        <mxPoint x="3112.3" y="565.5" as="targetPoint"/>
                    </mxGeometry>
                </mxCell>
                <mxCell id="363" value="" style="edgeStyle=none;orthogonalLoop=1;jettySize=auto;html=1;rounded=1;startArrow=blockThin;startFill=1;endArrow=none;endFill=0;" parent="1" edge="1">
                    <mxGeometry width="100" relative="1" as="geometry">
                        <mxPoint x="3093" y="537" as="sourcePoint"/>
                        <mxPoint x="2834" y="537" as="targetPoint"/>
                        <Array as="points"/>
                    </mxGeometry>
                </mxCell>
                <mxCell id="364" value="" style="edgeStyle=none;orthogonalLoop=1;jettySize=auto;html=1;rounded=1;startArrow=blockThin;startFill=1;endArrow=none;endFill=0;" parent="1" edge="1">
                    <mxGeometry width="100" relative="1" as="geometry">
                        <mxPoint x="3113" y="567" as="sourcePoint"/>
                        <mxPoint x="2833" y="566.9991703056768" as="targetPoint"/>
                        <Array as="points"/>
                    </mxGeometry>
                </mxCell>
                <mxCell id="367" value="wait for fence" style="text;html=1;align=center;verticalAlign=middle;resizable=0;points=[];autosize=1;strokeColor=none;fillColor=none;" parent="1" vertex="1">
                    <mxGeometry x="2732" y="621" width="90" height="30" as="geometry"/>
                </mxCell>
                <mxCell id="368" value="" style="edgeStyle=none;orthogonalLoop=1;jettySize=auto;html=1;rounded=1;startArrow=blockThin;startFill=1;endArrow=none;endFill=0;" parent="1" edge="1">
                    <mxGeometry width="100" relative="1" as="geometry">
                        <mxPoint x="2959" y="637" as="sourcePoint"/>
                        <mxPoint x="2833" y="637" as="targetPoint"/>
                        <Array as="points"/>
                    </mxGeometry>
                </mxCell>
                <mxCell id="369" value="" style="endArrow=none;dashed=1;html=1;strokeWidth=2;rounded=1;endFill=0;startArrow=blockThin;startFill=1;dashPattern=1 2;" parent="1" edge="1">
                    <mxGeometry width="50" height="50" relative="1" as="geometry">
                        <mxPoint x="2973" y="728" as="sourcePoint"/>
                        <mxPoint x="2973" y="636" as="targetPoint"/>
                    </mxGeometry>
                </mxCell>
                <mxCell id="370" value="" style="edgeStyle=none;orthogonalLoop=1;jettySize=auto;html=1;rounded=1;startArrow=blockThin;startFill=1;endArrow=none;endFill=0;" parent="1" edge="1">
                    <mxGeometry width="100" relative="1" as="geometry">
                        <mxPoint x="2838" y="732" as="sourcePoint"/>
                        <mxPoint x="2973" y="731" as="targetPoint"/>
                        <Array as="points"/>
                    </mxGeometry>
                </mxCell>
                <mxCell id="371" value="get fence" style="text;html=1;align=center;verticalAlign=middle;resizable=0;points=[];autosize=1;strokeColor=none;fillColor=none;" parent="1" vertex="1">
                    <mxGeometry x="2882" y="708" width="70" height="30" as="geometry"/>
                </mxCell>
                <mxCell id="372" value="acquire image" style="text;html=1;align=center;verticalAlign=middle;resizable=0;points=[];autosize=1;strokeColor=none;fillColor=none;" parent="1" vertex="1">
                    <mxGeometry x="2732" y="738" width="100" height="30" as="geometry"/>
                </mxCell>
                <mxCell id="373" value="queue present" style="text;html=1;align=center;verticalAlign=middle;resizable=0;points=[];autosize=1;strokeColor=none;fillColor=none;" parent="1" vertex="1">
                    <mxGeometry x="2732" y="792.5" width="100" height="30" as="geometry"/>
                </mxCell>
                <mxCell id="374" value="submit cmd" style="text;html=1;align=center;verticalAlign=middle;resizable=0;points=[];autosize=1;strokeColor=none;fillColor=none;" parent="1" vertex="1">
                    <mxGeometry x="2742" y="763" width="80" height="30" as="geometry"/>
                </mxCell>
                <mxCell id="375" value="" style="edgeStyle=none;orthogonalLoop=1;jettySize=auto;html=1;rounded=1;startArrow=blockThin;startFill=1;endArrow=none;endFill=0;" parent="1" edge="1">
                    <mxGeometry width="100" relative="1" as="geometry">
                        <mxPoint x="2960" y="753" as="sourcePoint"/>
                        <mxPoint x="2834" y="753" as="targetPoint"/>
                        <Array as="points"/>
                    </mxGeometry>
                </mxCell>
                <mxCell id="377" value="" style="edgeStyle=none;orthogonalLoop=1;jettySize=auto;html=1;rounded=1;startArrow=blockThin;startFill=1;endArrow=none;endFill=0;" parent="1" edge="1">
                    <mxGeometry width="100" relative="1" as="geometry">
                        <mxPoint x="2992" y="779" as="sourcePoint"/>
                        <mxPoint x="2833" y="779" as="targetPoint"/>
                        <Array as="points"/>
                    </mxGeometry>
                </mxCell>
                <mxCell id="380" value="" style="edgeStyle=none;orthogonalLoop=1;jettySize=auto;html=1;rounded=1;startArrow=blockThin;startFill=1;endArrow=none;endFill=0;" parent="1" edge="1">
                    <mxGeometry width="100" relative="1" as="geometry">
                        <mxPoint x="3012" y="810" as="sourcePoint"/>
                        <mxPoint x="2833" y="810" as="targetPoint"/>
                        <Array as="points"/>
                    </mxGeometry>
                </mxCell>
                <mxCell id="382" value="" style="html=1;points=[];perimeter=orthogonalPerimeter;fillColor=#808080;rounded=1;shadow=0;glass=0;sketch=0;strokeWidth=1;" parent="1" vertex="1">
                    <mxGeometry x="3003" y="1132" width="20" height="201" as="geometry"/>
                </mxCell>
                <mxCell id="385" value="loop 4" style="strokeWidth=2;html=1;shape=mxgraph.flowchart.annotation_1;align=left;pointerEvents=1;rounded=1;horizontal=1;verticalAlign=middle;spacing=-42;" parent="1" vertex="1">
                    <mxGeometry x="2722" y="852" width="20" height="160" as="geometry"/>
                </mxCell>
                <mxCell id="386" value="wait for fence" style="text;html=1;align=center;verticalAlign=middle;resizable=0;points=[];autosize=1;strokeColor=none;fillColor=none;" parent="1" vertex="1">
                    <mxGeometry x="2733" y="853" width="90" height="30" as="geometry"/>
                </mxCell>
                <mxCell id="387" value="" style="edgeStyle=none;orthogonalLoop=1;jettySize=auto;html=1;rounded=1;startArrow=blockThin;startFill=1;endArrow=none;endFill=0;" parent="1" edge="1">
                    <mxGeometry width="100" relative="1" as="geometry">
                        <mxPoint x="3071" y="868" as="sourcePoint"/>
                        <mxPoint x="2833" y="869" as="targetPoint"/>
                        <Array as="points"/>
                    </mxGeometry>
                </mxCell>
                <mxCell id="388" value="" style="endArrow=none;dashed=1;html=1;strokeWidth=2;rounded=1;endFill=0;startArrow=blockThin;startFill=1;dashPattern=1 2;" parent="1" edge="1">
                    <mxGeometry width="50" height="50" relative="1" as="geometry">
                        <mxPoint x="3073" y="912" as="sourcePoint"/>
                        <mxPoint x="3072" y="866" as="targetPoint"/>
                    </mxGeometry>
                </mxCell>
                <mxCell id="389" value="" style="edgeStyle=none;orthogonalLoop=1;jettySize=auto;html=1;rounded=1;startArrow=blockThin;startFill=1;endArrow=none;endFill=0;" parent="1" edge="1">
                    <mxGeometry width="100" relative="1" as="geometry">
                        <mxPoint x="2839" y="911" as="sourcePoint"/>
                        <mxPoint x="3072" y="909" as="targetPoint"/>
                        <Array as="points"/>
                    </mxGeometry>
                </mxCell>
                <mxCell id="390" value="get fence" style="text;html=1;align=center;verticalAlign=middle;resizable=0;points=[];autosize=1;strokeColor=none;fillColor=none;" parent="1" vertex="1">
                    <mxGeometry x="2883" y="887" width="70" height="30" as="geometry"/>
                </mxCell>
                <mxCell id="392" value="acquire image" style="text;html=1;align=center;verticalAlign=middle;resizable=0;points=[];autosize=1;strokeColor=none;fillColor=none;" parent="1" vertex="1">
                    <mxGeometry x="2728" y="919" width="100" height="30" as="geometry"/>
                </mxCell>
                <mxCell id="393" value="queue present" style="text;html=1;align=center;verticalAlign=middle;resizable=0;points=[];autosize=1;strokeColor=none;fillColor=none;" parent="1" vertex="1">
                    <mxGeometry x="2728" y="973.5" width="100" height="30" as="geometry"/>
                </mxCell>
                <mxCell id="394" value="submit cmd" style="text;html=1;align=center;verticalAlign=middle;resizable=0;points=[];autosize=1;strokeColor=none;fillColor=none;" parent="1" vertex="1">
                    <mxGeometry x="2738" y="944" width="80" height="30" as="geometry"/>
                </mxCell>
                <mxCell id="395" value="" style="edgeStyle=none;orthogonalLoop=1;jettySize=auto;html=1;rounded=1;startArrow=blockThin;startFill=1;endArrow=none;endFill=0;" parent="1" edge="1">
                    <mxGeometry width="100" relative="1" as="geometry">
                        <mxPoint x="3071" y="935" as="sourcePoint"/>
                        <mxPoint x="2833" y="936" as="targetPoint"/>
                        <Array as="points"/>
                    </mxGeometry>
                </mxCell>
                <mxCell id="396" value="" style="html=1;points=[];perimeter=orthogonalPerimeter;fillColor=#808080;rounded=1;shadow=0;glass=0;sketch=0;strokeWidth=1;" parent="1" vertex="1">
                    <mxGeometry x="3063" y="934" width="20" height="178" as="geometry"/>
                </mxCell>
                <mxCell id="397" value="" style="html=1;points=[];perimeter=orthogonalPerimeter;fillColor=#808080;rounded=1;shadow=0;glass=0;sketch=0;strokeWidth=1;" parent="1" vertex="1">
                    <mxGeometry x="3083" y="1111" width="20" height="200" as="geometry"/>
                </mxCell>
                <mxCell id="398" value="" style="html=1;points=[];perimeter=orthogonalPerimeter;fillColor=#808080;rounded=1;shadow=0;glass=0;sketch=0;strokeWidth=1;" parent="1" vertex="1">
                    <mxGeometry x="3103" y="1311" width="20" height="200" as="geometry"/>
                </mxCell>
                <mxCell id="399" value="" style="endArrow=none;dashed=1;html=1;strokeWidth=2;rounded=1;endFill=0;startArrow=blockThin;startFill=1;dashPattern=1 2;" parent="1" edge="1">
                    <mxGeometry width="50" height="50" relative="1" as="geometry">
                        <mxPoint x="3093" y="1110" as="sourcePoint"/>
                        <mxPoint x="3090.65" y="962" as="targetPoint"/>
                    </mxGeometry>
                </mxCell>
                <mxCell id="400" value="" style="edgeStyle=none;orthogonalLoop=1;jettySize=auto;html=1;rounded=1;startArrow=blockThin;startFill=1;endArrow=none;endFill=0;" parent="1" edge="1">
                    <mxGeometry width="100" relative="1" as="geometry">
                        <mxPoint x="3092" y="961" as="sourcePoint"/>
                        <mxPoint x="2833" y="961" as="targetPoint"/>
                        <Array as="points"/>
                    </mxGeometry>
                </mxCell>
                <mxCell id="401" value="" style="endArrow=none;dashed=1;html=1;strokeWidth=2;rounded=1;endFill=0;startArrow=blockThin;startFill=1;dashPattern=1 2;" parent="1" edge="1">
                    <mxGeometry width="50" height="50" relative="1" as="geometry">
                        <mxPoint x="3114" y="1310" as="sourcePoint"/>
                        <mxPoint x="3112.3" y="987" as="targetPoint"/>
                    </mxGeometry>
                </mxCell>
                <mxCell id="402" value="" style="edgeStyle=none;orthogonalLoop=1;jettySize=auto;html=1;rounded=1;startArrow=blockThin;startFill=1;endArrow=none;endFill=0;" parent="1" edge="1">
                    <mxGeometry width="100" relative="1" as="geometry">
                        <mxPoint x="3113" y="988.5" as="sourcePoint"/>
                        <mxPoint x="2833" y="988.4991703056767" as="targetPoint"/>
                        <Array as="points"/>
                    </mxGeometry>
                </mxCell>
                <mxCell id="405" value="Vulkan 初始化阶段" style="rounded=1;whiteSpace=wrap;html=1;shadow=0;glass=0;sketch=0;strokeWidth=1;" parent="1" vertex="1">
                    <mxGeometry x="1230" y="883" width="120" height="60" as="geometry"/>
                </mxCell>
                <mxCell id="408" style="html=1;startArrow=none;startFill=0;endArrow=blockThin;endFill=0;strokeWidth=1;sourcePerimeterSpacing=0;rounded=1;elbow=vertical;" parent="1" source="406" target="409" edge="1">
                    <mxGeometry relative="1" as="geometry">
                        <mxPoint x="1690" y="945" as="targetPoint"/>
                    </mxGeometry>
                </mxCell>
                <mxCell id="406" value="创建 Instance" style="rounded=1;whiteSpace=wrap;html=1;shadow=0;glass=0;sketch=0;strokeWidth=1;" parent="1" vertex="1">
                    <mxGeometry x="1569" y="865" width="120" height="40" as="geometry"/>
                </mxCell>
                <mxCell id="428" style="edgeStyle=none;rounded=1;html=1;strokeWidth=1;startArrow=none;startFill=0;endArrow=blockThin;endFill=0;sourcePerimeterSpacing=0;elbow=vertical;" parent="1" source="409" target="424" edge="1">
                    <mxGeometry relative="1" as="geometry"/>
                </mxCell>
                <mxCell id="409" value="Instance" style="text;html=1;align=center;verticalAlign=middle;resizable=0;points=[];autosize=1;strokeColor=none;fillColor=none;" parent="1" vertex="1">
                    <mxGeometry x="1594" y="928" width="70" height="30" as="geometry"/>
                </mxCell>
                <mxCell id="438" style="edgeStyle=none;rounded=1;html=1;strokeWidth=1;startArrow=none;startFill=0;endArrow=blockThin;endFill=0;sourcePerimeterSpacing=0;elbow=vertical;" parent="1" source="414" target="431" edge="1">
                    <mxGeometry relative="1" as="geometry"/>
                </mxCell>
                <mxCell id="414" value="Physical Device" style="text;html=1;align=center;verticalAlign=middle;resizable=0;points=[];autosize=1;strokeColor=none;fillColor=none;" parent="1" vertex="1">
                    <mxGeometry x="1824" y="1156" width="110" height="30" as="geometry"/>
                </mxCell>
                <mxCell id="419" style="edgeStyle=none;rounded=1;html=1;strokeWidth=1;startArrow=none;startFill=0;endArrow=blockThin;endFill=0;sourcePerimeterSpacing=0;" parent="1" source="415" target="414" edge="1">
                    <mxGeometry relative="1" as="geometry"/>
                </mxCell>
                <mxCell id="415" value="选择物理设备" style="swimlane;fontStyle=0;childLayout=stackLayout;horizontal=1;startSize=26;fillColor=none;horizontalStack=0;resizeParent=1;resizeParentMax=0;resizeLast=0;collapsible=1;marginBottom=0;html=1;rounded=1;shadow=0;glass=0;sketch=0;strokeWidth=1;" parent="1" vertex="1">
                    <mxGeometry x="1779" y="997" width="200" height="104" as="geometry"/>
                </mxCell>
                <mxCell id="416" value="检查队列族" style="text;strokeColor=none;fillColor=none;align=left;verticalAlign=top;spacingLeft=4;spacingRight=4;overflow=hidden;rotatable=0;points=[[0,0.5],[1,0.5]];portConstraint=eastwest;whiteSpace=wrap;html=1;rounded=1;shadow=0;glass=0;sketch=0;strokeWidth=1;" parent="415" vertex="1">
                    <mxGeometry y="26" width="200" height="26" as="geometry"/>
                </mxCell>
                <mxCell id="417" value="检查设备级 层和扩展" style="text;strokeColor=none;fillColor=none;align=left;verticalAlign=top;spacingLeft=4;spacingRight=4;overflow=hidden;rotatable=0;points=[[0,0.5],[1,0.5]];portConstraint=eastwest;whiteSpace=wrap;html=1;rounded=1;shadow=0;glass=0;sketch=0;strokeWidth=1;" parent="415" vertex="1">
                    <mxGeometry y="52" width="200" height="26" as="geometry"/>
                </mxCell>
                <mxCell id="418" value="检查surface满足交换链要求" style="text;strokeColor=none;fillColor=none;align=left;verticalAlign=top;spacingLeft=4;spacingRight=4;overflow=hidden;rotatable=0;points=[[0,0.5],[1,0.5]];portConstraint=eastwest;whiteSpace=wrap;html=1;rounded=1;shadow=0;glass=0;sketch=0;strokeWidth=1;" parent="415" vertex="1">
                    <mxGeometry y="78" width="200" height="26" as="geometry"/>
                </mxCell>
                <mxCell id="421" style="edgeStyle=none;rounded=1;html=1;strokeWidth=1;startArrow=none;startFill=0;endArrow=blockThin;endFill=0;sourcePerimeterSpacing=0;elbow=vertical;" parent="1" source="416" target="422" edge="1">
                    <mxGeometry relative="1" as="geometry">
                        <mxPoint x="2270.0000000000005" y="918.9999999999998" as="targetPoint"/>
                    </mxGeometry>
                </mxCell>
                <mxCell id="434" style="edgeStyle=none;rounded=1;html=1;strokeWidth=1;startArrow=none;startFill=0;endArrow=blockThin;endFill=0;sourcePerimeterSpacing=0;elbow=vertical;" parent="1" source="422" target="433" edge="1">
                    <mxGeometry relative="1" as="geometry"/>
                </mxCell>
                <mxCell id="450" style="edgeStyle=orthogonalEdgeStyle;rounded=1;html=1;strokeWidth=1;startArrow=none;startFill=0;endArrow=blockThin;endFill=0;sourcePerimeterSpacing=0;elbow=vertical;" parent="1" source="422" target="445" edge="1">
                    <mxGeometry relative="1" as="geometry">
                        <Array as="points">
                            <mxPoint x="2240" y="1038"/>
                            <mxPoint x="2240" y="1405"/>
                        </Array>
                    </mxGeometry>
                </mxCell>
                <mxCell id="422" value="Queue Family" style="text;html=1;align=center;verticalAlign=middle;resizable=0;points=[];autosize=1;strokeColor=none;fillColor=none;" parent="1" vertex="1">
                    <mxGeometry x="2090" y="1023" width="100" height="30" as="geometry"/>
                </mxCell>
                <mxCell id="427" style="edgeStyle=none;rounded=1;html=1;strokeWidth=1;startArrow=none;startFill=0;endArrow=blockThin;endFill=0;sourcePerimeterSpacing=0;elbow=vertical;" parent="1" target="424" edge="1">
                    <mxGeometry relative="1" as="geometry">
                        <mxPoint x="1520" y="1009" as="sourcePoint"/>
                    </mxGeometry>
                </mxCell>
                <mxCell id="456" style="edgeStyle=orthogonalEdgeStyle;rounded=1;html=1;strokeWidth=1;startArrow=none;startFill=0;endArrow=blockThin;endFill=0;sourcePerimeterSpacing=0;elbow=vertical;" parent="1" source="423" target="454" edge="1">
                    <mxGeometry relative="1" as="geometry"/>
                </mxCell>
                <mxCell id="423" value="GLFW Window" style="text;html=1;align=center;verticalAlign=middle;resizable=0;points=[];autosize=1;strokeColor=none;fillColor=none;" parent="1" vertex="1">
                    <mxGeometry x="1420" y="993" width="100" height="30" as="geometry"/>
                </mxCell>
                <mxCell id="430" style="edgeStyle=none;rounded=1;html=1;strokeWidth=1;startArrow=none;startFill=0;endArrow=blockThin;endFill=0;sourcePerimeterSpacing=0;elbow=vertical;" parent="1" source="424" target="429" edge="1">
                    <mxGeometry relative="1" as="geometry"/>
                </mxCell>
                <mxCell id="424" value="创建 Surface" style="rounded=1;whiteSpace=wrap;html=1;shadow=0;glass=0;sketch=0;strokeWidth=1;" parent="1" vertex="1">
                    <mxGeometry x="1569" y="989" width="120" height="40" as="geometry"/>
                </mxCell>
                <mxCell id="442" style="edgeStyle=none;rounded=1;html=1;entryX=0;entryY=0.5;entryDx=0;entryDy=0;strokeWidth=1;startArrow=none;startFill=0;endArrow=blockThin;endFill=0;sourcePerimeterSpacing=0;elbow=vertical;" parent="1" source="429" target="418" edge="1">
                    <mxGeometry relative="1" as="geometry"/>
                </mxCell>
                <mxCell id="449" style="edgeStyle=orthogonalEdgeStyle;rounded=1;html=1;strokeWidth=1;startArrow=none;startFill=0;endArrow=blockThin;endFill=0;sourcePerimeterSpacing=0;elbow=vertical;" parent="1" source="429" target="445" edge="1">
                    <mxGeometry relative="1" as="geometry">
                        <Array as="points">
                            <mxPoint x="1630" y="1405"/>
                        </Array>
                    </mxGeometry>
                </mxCell>
                <mxCell id="429" value="Surface" style="text;html=1;align=center;verticalAlign=middle;resizable=0;points=[];autosize=1;strokeColor=none;fillColor=none;" parent="1" vertex="1">
                    <mxGeometry x="1599" y="1073" width="60" height="30" as="geometry"/>
                </mxCell>
                <mxCell id="441" style="edgeStyle=none;rounded=1;html=1;strokeWidth=1;startArrow=none;startFill=0;endArrow=blockThin;endFill=0;sourcePerimeterSpacing=0;elbow=vertical;" parent="1" source="431" target="440" edge="1">
                    <mxGeometry relative="1" as="geometry"/>
                </mxCell>
                <mxCell id="431" value="创建 Logical Device" style="rounded=1;whiteSpace=wrap;html=1;shadow=0;glass=0;sketch=0;strokeWidth=1;" parent="1" vertex="1">
                    <mxGeometry x="1820" y="1241" width="120" height="40" as="geometry"/>
                </mxCell>
                <mxCell id="436" style="edgeStyle=none;rounded=1;html=1;strokeWidth=1;startArrow=none;startFill=0;endArrow=blockThin;endFill=0;sourcePerimeterSpacing=0;elbow=vertical;" parent="1" source="433" target="435" edge="1">
                    <mxGeometry relative="1" as="geometry"/>
                </mxCell>
                <mxCell id="433" value="选择所需的队列" style="rounded=1;whiteSpace=wrap;html=1;shadow=0;glass=0;sketch=0;strokeWidth=1;" parent="1" vertex="1">
                    <mxGeometry x="2080" y="1103" width="120" height="40" as="geometry"/>
                </mxCell>
                <mxCell id="437" style="edgeStyle=orthogonalEdgeStyle;rounded=1;html=1;strokeWidth=1;startArrow=none;startFill=0;endArrow=blockThin;endFill=0;sourcePerimeterSpacing=0;elbow=vertical;" parent="1" source="435" target="431" edge="1">
                    <mxGeometry relative="1" as="geometry">
                        <Array as="points">
                            <mxPoint x="2140" y="1265"/>
                        </Array>
                    </mxGeometry>
                </mxCell>
                <mxCell id="435" value="Queue" style="text;html=1;align=center;verticalAlign=middle;resizable=0;points=[];autosize=1;strokeColor=none;fillColor=none;" parent="1" vertex="1">
                    <mxGeometry x="2110" y="1186" width="60" height="30" as="geometry"/>
                </mxCell>
                <mxCell id="446" style="edgeStyle=orthogonalEdgeStyle;rounded=1;html=1;strokeWidth=1;startArrow=none;startFill=0;endArrow=blockThin;endFill=0;sourcePerimeterSpacing=0;elbow=vertical;" parent="1" source="440" target="445" edge="1">
                    <mxGeometry relative="1" as="geometry"/>
                </mxCell>
                <mxCell id="440" value="Device" style="text;html=1;align=center;verticalAlign=middle;resizable=0;points=[];autosize=1;strokeColor=none;fillColor=none;" parent="1" vertex="1">
                    <mxGeometry x="1850" y="1321" width="60" height="30" as="geometry"/>
                </mxCell>
                <mxCell id="443" style="edgeStyle=orthogonalEdgeStyle;rounded=1;html=1;strokeWidth=1;startArrow=none;startFill=0;endArrow=blockThin;endFill=0;sourcePerimeterSpacing=0;elbow=vertical;" parent="1" source="417" target="431" edge="1">
                    <mxGeometry relative="1" as="geometry">
                        <Array as="points">
                            <mxPoint x="2040" y="1062"/>
                            <mxPoint x="2040" y="1255"/>
                        </Array>
                    </mxGeometry>
                </mxCell>
                <mxCell id="444" value="layer and&amp;nbsp;&lt;br&gt;extensions" style="edgeLabel;html=1;align=center;verticalAlign=middle;resizable=0;points=[];" parent="443" vertex="1" connectable="0">
                    <mxGeometry x="-0.0508" y="-1" relative="1" as="geometry">
                        <mxPoint y="-8" as="offset"/>
                    </mxGeometry>
                </mxCell>
                <mxCell id="448" style="edgeStyle=orthogonalEdgeStyle;rounded=1;html=1;strokeWidth=1;startArrow=none;startFill=0;endArrow=blockThin;endFill=0;sourcePerimeterSpacing=0;elbow=vertical;" parent="1" source="445" target="447" edge="1">
                    <mxGeometry relative="1" as="geometry"/>
                </mxCell>
                <mxCell id="445" value="创建 交换链" style="rounded=1;whiteSpace=wrap;html=1;shadow=0;glass=0;sketch=0;strokeWidth=1;" parent="1" vertex="1">
                    <mxGeometry x="1820" y="1385" width="120" height="40" as="geometry"/>
                </mxCell>
                <mxCell id="451" style="edgeStyle=orthogonalEdgeStyle;rounded=1;html=1;strokeWidth=1;startArrow=none;startFill=0;endArrow=blockThin;endFill=0;sourcePerimeterSpacing=0;elbow=vertical;" parent="1" source="447" target="452" edge="1">
                    <mxGeometry relative="1" as="geometry">
                        <mxPoint x="1880" y="1565" as="targetPoint"/>
                    </mxGeometry>
                </mxCell>
                <mxCell id="447" value="Swap Chain" style="text;html=1;align=center;verticalAlign=middle;resizable=0;points=[];autosize=1;strokeColor=none;fillColor=none;" parent="1" vertex="1">
                    <mxGeometry x="1835" y="1475" width="90" height="30" as="geometry"/>
                </mxCell>
                <mxCell id="452" value="SwapChain Image &amp;amp; &lt;br&gt;SwapChain ImageView" style="text;html=1;align=center;verticalAlign=middle;resizable=0;points=[];autosize=1;strokeColor=none;fillColor=none;" parent="1" vertex="1">
                    <mxGeometry x="1805" y="1560" width="150" height="40" as="geometry"/>
                </mxCell>
                <mxCell id="453" value="Vulkan 管线创建阶段" style="rounded=1;whiteSpace=wrap;html=1;shadow=0;glass=0;sketch=0;strokeWidth=1;" parent="1" vertex="1">
                    <mxGeometry x="80" y="1720" width="120" height="60" as="geometry"/>
                </mxCell>
                <mxCell id="455" style="edgeStyle=orthogonalEdgeStyle;rounded=1;html=1;strokeWidth=1;startArrow=none;startFill=0;endArrow=blockThin;endFill=0;sourcePerimeterSpacing=0;elbow=vertical;" parent="1" source="454" target="406" edge="1">
                    <mxGeometry relative="1" as="geometry"/>
                </mxCell>
                <mxCell id="454" value="实例级 层 &amp;amp; 扩展" style="text;html=1;align=center;verticalAlign=middle;resizable=0;points=[];autosize=1;strokeColor=none;fillColor=none;" parent="1" vertex="1">
                    <mxGeometry x="1415" y="870" width="110" height="30" as="geometry"/>
                </mxCell>
                <mxCell id="457" value="Cmd Buffer" style="rounded=1;whiteSpace=wrap;html=1;shadow=0;glass=0;sketch=0;strokeWidth=1;" parent="1" vertex="1">
                    <mxGeometry x="270" y="1730" width="120" height="40" as="geometry"/>
                </mxCell>
                <mxCell id="458" value="Frame Buffer" style="rounded=1;whiteSpace=wrap;html=1;shadow=0;glass=0;sketch=0;strokeWidth=1;" parent="1" vertex="1">
                    <mxGeometry x="400" y="1730" width="120" height="40" as="geometry"/>
                </mxCell>
                <mxCell id="460" value="Graphics Pipeline" style="rounded=1;whiteSpace=wrap;html=1;shadow=0;glass=0;sketch=0;strokeWidth=1;" parent="1" vertex="1">
                    <mxGeometry x="525" y="1730" width="120" height="40" as="geometry"/>
                </mxCell>
                <mxCell id="461" value="Render Pass" style="rounded=1;whiteSpace=wrap;html=1;shadow=0;glass=0;sketch=0;strokeWidth=1;" parent="1" vertex="1">
                    <mxGeometry x="660" y="1730" width="120" height="40" as="geometry"/>
                </mxCell>
                <mxCell id="464" style="edgeStyle=orthogonalEdgeStyle;rounded=1;html=1;strokeWidth=1;startArrow=none;startFill=0;endArrow=blockThin;endFill=0;sourcePerimeterSpacing=0;elbow=vertical;" parent="1" source="462" target="463" edge="1">
                    <mxGeometry relative="1" as="geometry"/>
                </mxCell>
                <mxCell id="462" value="Queue Family" style="text;html=1;align=center;verticalAlign=middle;resizable=0;points=[];autosize=1;strokeColor=none;fillColor=none;" parent="1" vertex="1">
                    <mxGeometry x="130" y="1835" width="100" height="30" as="geometry"/>
                </mxCell>
                <mxCell id="466" style="edgeStyle=orthogonalEdgeStyle;rounded=1;html=1;strokeWidth=1;startArrow=none;startFill=0;endArrow=blockThin;endFill=0;sourcePerimeterSpacing=0;elbow=vertical;" parent="1" source="463" target="465" edge="1">
                    <mxGeometry relative="1" as="geometry"/>
                </mxCell>
                <mxCell id="463" value="创建 Cmd Pool" style="rounded=1;whiteSpace=wrap;html=1;shadow=0;glass=0;sketch=0;strokeWidth=1;" parent="1" vertex="1">
                    <mxGeometry x="120" y="1900" width="120" height="40" as="geometry"/>
                </mxCell>
                <mxCell id="468" style="edgeStyle=orthogonalEdgeStyle;rounded=1;html=1;strokeWidth=1;startArrow=none;startFill=0;endArrow=blockThin;endFill=0;sourcePerimeterSpacing=0;elbow=vertical;" parent="1" source="465" target="467" edge="1">
                    <mxGeometry relative="1" as="geometry"/>
                </mxCell>
                <mxCell id="465" value="Cmd Pool" style="text;html=1;align=center;verticalAlign=middle;resizable=0;points=[];autosize=1;strokeColor=none;fillColor=none;" parent="1" vertex="1">
                    <mxGeometry x="140" y="1980" width="80" height="30" as="geometry"/>
                </mxCell>
                <mxCell id="470" style="edgeStyle=orthogonalEdgeStyle;rounded=1;html=1;strokeWidth=1;startArrow=none;startFill=0;endArrow=blockThin;endFill=0;sourcePerimeterSpacing=0;elbow=vertical;" parent="1" source="467" target="469" edge="1">
                    <mxGeometry relative="1" as="geometry"/>
                </mxCell>
                <mxCell id="467" value="创建 Cmd Buffer" style="rounded=1;whiteSpace=wrap;html=1;shadow=0;glass=0;sketch=0;strokeWidth=1;" parent="1" vertex="1">
                    <mxGeometry x="120" y="2053" width="120" height="40" as="geometry"/>
                </mxCell>
                <mxCell id="469" value="Cmd Buffer" style="text;html=1;align=center;verticalAlign=middle;resizable=0;points=[];autosize=1;strokeColor=none;fillColor=none;" parent="1" vertex="1">
                    <mxGeometry x="140" y="2130" width="80" height="30" as="geometry"/>
                </mxCell>
                <mxCell id="473" style="edgeStyle=orthogonalEdgeStyle;rounded=1;html=1;strokeWidth=1;startArrow=none;startFill=0;endArrow=blockThin;endFill=0;sourcePerimeterSpacing=0;elbow=vertical;" parent="1" source="474" target="472" edge="1">
                    <mxGeometry relative="1" as="geometry">
                        <mxPoint x="535" y="2000" as="sourcePoint"/>
                    </mxGeometry>
                </mxCell>
                <mxCell id="483" style="edgeStyle=orthogonalEdgeStyle;rounded=1;html=1;strokeWidth=1;startArrow=none;startFill=0;endArrow=blockThin;endFill=0;sourcePerimeterSpacing=0;elbow=vertical;" parent="1" source="472" target="481" edge="1">
                    <mxGeometry relative="1" as="geometry">
                        <Array as="points">
                            <mxPoint x="570" y="2275"/>
                        </Array>
                    </mxGeometry>
                </mxCell>
                <mxCell id="484" style="edgeStyle=orthogonalEdgeStyle;rounded=1;html=1;strokeWidth=1;startArrow=none;startFill=0;endArrow=blockThin;endFill=0;sourcePerimeterSpacing=0;elbow=vertical;" parent="1" source="472" target="482" edge="1">
                    <mxGeometry relative="1" as="geometry">
                        <Array as="points">
                            <mxPoint x="570" y="2275"/>
                        </Array>
                    </mxGeometry>
                </mxCell>
                <mxCell id="576" style="edgeStyle=orthogonalEdgeStyle;html=1;entryX=1;entryY=0.25;entryDx=0;entryDy=0;" edge="1" parent="1" source="472" target="467">
                    <mxGeometry relative="1" as="geometry"/>
                </mxCell>
                <mxCell id="472" value="Render Pass" style="text;html=1;align=center;verticalAlign=middle;resizable=0;points=[];autosize=1;strokeColor=none;fillColor=none;" parent="1" vertex="1">
                    <mxGeometry x="525" y="2048" width="90" height="30" as="geometry"/>
                </mxCell>
                <mxCell id="474" value="创建 Render Pass" style="swimlane;fontStyle=0;childLayout=stackLayout;horizontal=1;startSize=26;fillColor=none;horizontalStack=0;resizeParent=1;resizeParentMax=0;resizeLast=0;collapsible=1;marginBottom=0;html=1;rounded=1;shadow=0;glass=0;sketch=0;strokeWidth=1;" parent="1" vertex="1">
                    <mxGeometry x="470" y="1836" width="200" height="104" as="geometry"/>
                </mxCell>
                <mxCell id="475" value="配置 Attachment" style="text;strokeColor=none;fillColor=none;align=left;verticalAlign=top;spacingLeft=4;spacingRight=4;overflow=hidden;rotatable=0;points=[[0,0.5],[1,0.5]];portConstraint=eastwest;whiteSpace=wrap;html=1;rounded=1;shadow=0;glass=0;sketch=0;strokeWidth=1;" parent="474" vertex="1">
                    <mxGeometry y="26" width="200" height="26" as="geometry"/>
                </mxCell>
                <mxCell id="476" value="配置 Subpass" style="text;strokeColor=none;fillColor=none;align=left;verticalAlign=top;spacingLeft=4;spacingRight=4;overflow=hidden;rotatable=0;points=[[0,0.5],[1,0.5]];portConstraint=eastwest;whiteSpace=wrap;html=1;rounded=1;shadow=0;glass=0;sketch=0;strokeWidth=1;" parent="474" vertex="1">
                    <mxGeometry y="52" width="200" height="26" as="geometry"/>
                </mxCell>
                <mxCell id="477" value="配置 Subpass Dependency" style="text;strokeColor=none;fillColor=none;align=left;verticalAlign=top;spacingLeft=4;spacingRight=4;overflow=hidden;rotatable=0;points=[[0,0.5],[1,0.5]];portConstraint=eastwest;whiteSpace=wrap;html=1;rounded=1;shadow=0;glass=0;sketch=0;strokeWidth=1;" parent="474" vertex="1">
                    <mxGeometry y="78" width="200" height="26" as="geometry"/>
                </mxCell>
                <mxCell id="488" style="edgeStyle=orthogonalEdgeStyle;rounded=1;html=1;strokeWidth=1;startArrow=none;startFill=0;endArrow=blockThin;endFill=0;sourcePerimeterSpacing=0;elbow=vertical;" parent="1" source="481" target="487" edge="1">
                    <mxGeometry relative="1" as="geometry"/>
                </mxCell>
                <mxCell id="481" value="创建 Frame Buffer" style="rounded=1;whiteSpace=wrap;html=1;shadow=0;glass=0;sketch=0;strokeWidth=1;" parent="1" vertex="1">
                    <mxGeometry x="355" y="2255" width="120" height="40" as="geometry"/>
                </mxCell>
                <mxCell id="490" style="edgeStyle=orthogonalEdgeStyle;rounded=1;html=1;strokeWidth=1;startArrow=none;startFill=0;endArrow=blockThin;endFill=0;sourcePerimeterSpacing=0;elbow=vertical;" parent="1" source="482" target="489" edge="1">
                    <mxGeometry relative="1" as="geometry"/>
                </mxCell>
                <mxCell id="482" value="创建 Graphics Pipeline" style="rounded=1;whiteSpace=wrap;html=1;shadow=0;glass=0;sketch=0;strokeWidth=1;" parent="1" vertex="1">
                    <mxGeometry x="675" y="2255" width="120" height="40" as="geometry"/>
                </mxCell>
                <mxCell id="486" style="edgeStyle=orthogonalEdgeStyle;rounded=1;html=1;strokeWidth=1;startArrow=none;startFill=0;endArrow=blockThin;endFill=0;sourcePerimeterSpacing=0;elbow=vertical;" parent="1" source="485" target="481" edge="1">
                    <mxGeometry relative="1" as="geometry"/>
                </mxCell>
                <mxCell id="485" value="SwapChain ImageView" style="text;html=1;align=center;verticalAlign=middle;resizable=0;points=[];autosize=1;strokeColor=none;fillColor=none;" parent="1" vertex="1">
                    <mxGeometry x="340" y="2360" width="150" height="30" as="geometry"/>
                </mxCell>
                <mxCell id="577" style="edgeStyle=orthogonalEdgeStyle;html=1;" edge="1" parent="1" source="487" target="467">
                    <mxGeometry relative="1" as="geometry">
                        <Array as="points">
                            <mxPoint x="415" y="2080"/>
                        </Array>
                    </mxGeometry>
                </mxCell>
                <mxCell id="487" value="Frame Buffer" style="text;html=1;align=center;verticalAlign=middle;resizable=0;points=[];autosize=1;strokeColor=none;fillColor=none;" parent="1" vertex="1">
                    <mxGeometry x="370" y="2180" width="90" height="30" as="geometry"/>
                </mxCell>
                <mxCell id="489" value="&lt;span style=&quot;&quot;&gt;Graphics Pipeline&lt;/span&gt;" style="text;html=1;align=center;verticalAlign=middle;resizable=0;points=[];autosize=1;strokeColor=none;fillColor=none;" parent="1" vertex="1">
                    <mxGeometry x="675" y="2345" width="120" height="30" as="geometry"/>
                </mxCell>
                <mxCell id="492" style="edgeStyle=orthogonalEdgeStyle;rounded=1;html=1;strokeWidth=1;startArrow=none;startFill=0;endArrow=blockThin;endFill=0;sourcePerimeterSpacing=0;elbow=vertical;" parent="1" source="491" target="482" edge="1">
                    <mxGeometry relative="1" as="geometry"/>
                </mxCell>
                <mxCell id="491" value="Shader" style="text;html=1;align=center;verticalAlign=middle;resizable=0;points=[];autosize=1;strokeColor=none;fillColor=none;" parent="1" vertex="1">
                    <mxGeometry x="705" y="2175" width="60" height="30" as="geometry"/>
                </mxCell>
                <mxCell id="494" style="edgeStyle=orthogonalEdgeStyle;rounded=1;html=1;strokeWidth=1;startArrow=none;startFill=0;endArrow=blockThin;endFill=0;sourcePerimeterSpacing=0;elbow=vertical;" parent="1" source="493" target="482" edge="1">
                    <mxGeometry relative="1" as="geometry">
                        <Array as="points">
                            <mxPoint x="865" y="2265"/>
                        </Array>
                    </mxGeometry>
                </mxCell>
                <mxCell id="493" value="Graphics Pipeline &lt;br&gt;layout" style="text;html=1;align=center;verticalAlign=middle;resizable=0;points=[];autosize=1;strokeColor=none;fillColor=none;" parent="1" vertex="1">
                    <mxGeometry x="805" y="2170" width="120" height="40" as="geometry"/>
                </mxCell>
                <mxCell id="496" style="edgeStyle=orthogonalEdgeStyle;rounded=1;html=1;strokeWidth=1;startArrow=none;startFill=0;endArrow=blockThin;endFill=0;sourcePerimeterSpacing=0;elbow=vertical;" parent="1" source="495" target="482" edge="1">
                    <mxGeometry relative="1" as="geometry"/>
                </mxCell>
                <mxCell id="495" value="fix function" style="text;html=1;align=center;verticalAlign=middle;resizable=0;points=[];autosize=1;strokeColor=none;fillColor=none;" parent="1" vertex="1">
                    <mxGeometry x="915" y="2260" width="80" height="30" as="geometry"/>
                </mxCell>
                <mxCell id="497" value="" style="endArrow=blockThin;dashed=1;html=1;dashPattern=1 3;strokeWidth=2;rounded=1;sourcePerimeterSpacing=0;elbow=vertical;endFill=0;" parent="1" source="474" edge="1">
                    <mxGeometry width="50" height="50" relative="1" as="geometry">
                        <mxPoint x="670" y="2010" as="sourcePoint"/>
                        <mxPoint x="840" y="1890" as="targetPoint"/>
                    </mxGeometry>
                </mxCell>
                <mxCell id="498" value="Attachment:&amp;nbsp;&lt;br&gt;&lt;br&gt;&lt;br&gt;&lt;br&gt;&lt;br&gt;Subpass:&amp;nbsp;&lt;br&gt;&lt;br&gt;&lt;br&gt;&lt;br&gt;&lt;br&gt;Subpass Dependency:&amp;nbsp;" style="dashed=1;rounded=1;absoluteArcSize=1;arcSize=20;html=1;verticalAlign=top;align=left;spacingTop=5;spacingLeft=10;shadow=0;glass=0;sketch=0;strokeWidth=1;fillColor=none;" parent="1" vertex="1">
                    <mxGeometry x="840" y="1800" width="520" height="200" as="geometry"/>
                </mxCell>
                <mxCell id="499" value="Attachment_0" style="whiteSpace=wrap;html=1;rounded=1;shadow=0;glass=0;sketch=0;strokeWidth=1;fillColor=none;" parent="1" vertex="1">
                    <mxGeometry x="930" y="1810" width="90" height="30" as="geometry"/>
                </mxCell>
                <mxCell id="500" value="Attachment_1" style="whiteSpace=wrap;html=1;rounded=1;shadow=0;glass=0;sketch=0;strokeWidth=1;fillColor=none;" parent="1" vertex="1">
                    <mxGeometry x="1030" y="1810" width="90" height="30" as="geometry"/>
                </mxCell>
                <mxCell id="501" value="Attachment_2" style="whiteSpace=wrap;html=1;rounded=1;shadow=0;glass=0;sketch=0;strokeWidth=1;fillColor=none;" parent="1" vertex="1">
                    <mxGeometry x="1130" y="1810" width="90" height="30" as="geometry"/>
                </mxCell>
                <mxCell id="502" value="Attachment_3" style="whiteSpace=wrap;html=1;rounded=1;shadow=0;glass=0;sketch=0;strokeWidth=1;fillColor=none;" parent="1" vertex="1">
                    <mxGeometry x="1230" y="1810" width="90" height="30" as="geometry"/>
                </mxCell>
                <mxCell id="503" value="Subpass_0" style="whiteSpace=wrap;html=1;rounded=1;shadow=0;glass=0;sketch=0;strokeWidth=1;fillColor=none;" parent="1" vertex="1">
                    <mxGeometry x="980" y="1880" width="90" height="30" as="geometry"/>
                </mxCell>
                <mxCell id="504" value="Subpass_1" style="whiteSpace=wrap;html=1;rounded=1;shadow=0;glass=0;sketch=0;strokeWidth=1;fillColor=none;" parent="1" vertex="1">
                    <mxGeometry x="1080" y="1880" width="90" height="30" as="geometry"/>
                </mxCell>
                <mxCell id="505" value="Subpass_2" style="whiteSpace=wrap;html=1;rounded=1;shadow=0;glass=0;sketch=0;strokeWidth=1;fillColor=none;" parent="1" vertex="1">
                    <mxGeometry x="1180" y="1880" width="90" height="30" as="geometry"/>
                </mxCell>
                <mxCell id="506" value="Subpass_0" style="whiteSpace=wrap;html=1;rounded=1;shadow=0;glass=0;sketch=0;strokeWidth=1;fillColor=none;" parent="1" vertex="1">
                    <mxGeometry x="980" y="1950" width="90" height="30" as="geometry"/>
                </mxCell>
                <mxCell id="507" value="Subpass_1" style="whiteSpace=wrap;html=1;rounded=1;shadow=0;glass=0;sketch=0;strokeWidth=1;fillColor=none;" parent="1" vertex="1">
                    <mxGeometry x="1260" y="1950" width="90" height="30" as="geometry"/>
                </mxCell>
                <mxCell id="508" value="Subpass_2" style="whiteSpace=wrap;html=1;rounded=1;shadow=0;glass=0;sketch=0;strokeWidth=1;fillColor=none;" parent="1" vertex="1">
                    <mxGeometry x="1120" y="1950" width="90" height="30" as="geometry"/>
                </mxCell>
                <mxCell id="510" value="" style="edgeStyle=none;orthogonalLoop=1;jettySize=auto;html=1;shape=flexArrow;rounded=1;startSize=8;endSize=8;strokeWidth=1;startArrow=none;startFill=0;endArrow=blockThin;endFill=0;sourcePerimeterSpacing=0;elbow=vertical;width=5;endWidth=6.666666666666667;" parent="1" edge="1">
                    <mxGeometry width="100" relative="1" as="geometry">
                        <mxPoint x="1070" y="1964.83" as="sourcePoint"/>
                        <mxPoint x="1120" y="1964.83" as="targetPoint"/>
                        <Array as="points"/>
                    </mxGeometry>
                </mxCell>
                <mxCell id="511" value="" style="edgeStyle=none;orthogonalLoop=1;jettySize=auto;html=1;shape=flexArrow;rounded=1;startSize=8;endSize=8;strokeWidth=1;startArrow=none;startFill=0;endArrow=blockThin;endFill=0;sourcePerimeterSpacing=0;elbow=vertical;width=5;endWidth=6.666666666666667;" parent="1" edge="1">
                    <mxGeometry width="100" relative="1" as="geometry">
                        <mxPoint x="1210" y="1964.83" as="sourcePoint"/>
                        <mxPoint x="1260" y="1964.83" as="targetPoint"/>
                        <Array as="points"/>
                    </mxGeometry>
                </mxCell>
                <mxCell id="513" value="" style="edgeStyle=none;orthogonalLoop=1;jettySize=auto;html=1;rounded=1;strokeWidth=1;startArrow=none;startFill=0;endArrow=blockThin;endFill=0;sourcePerimeterSpacing=0;elbow=vertical;" parent="1" source="503" target="499" edge="1">
                    <mxGeometry width="100" relative="1" as="geometry">
                        <mxPoint x="1020" y="1860" as="sourcePoint"/>
                        <mxPoint x="1120" y="1860" as="targetPoint"/>
                        <Array as="points"/>
                    </mxGeometry>
                </mxCell>
                <mxCell id="514" value="" style="edgeStyle=none;orthogonalLoop=1;jettySize=auto;html=1;rounded=1;strokeWidth=1;startArrow=none;startFill=0;endArrow=blockThin;endFill=0;sourcePerimeterSpacing=0;elbow=vertical;" parent="1" source="503" target="502" edge="1">
                    <mxGeometry width="100" relative="1" as="geometry">
                        <mxPoint x="1024.2857142857144" y="1890" as="sourcePoint"/>
                        <mxPoint x="995.7142857142858" y="1850" as="targetPoint"/>
                        <Array as="points"/>
                    </mxGeometry>
                </mxCell>
                <mxCell id="515" value="" style="edgeStyle=none;orthogonalLoop=1;jettySize=auto;html=1;rounded=1;strokeWidth=1;startArrow=none;startFill=0;endArrow=blockThin;endFill=0;sourcePerimeterSpacing=0;elbow=vertical;" parent="1" source="504" target="499" edge="1">
                    <mxGeometry width="100" relative="1" as="geometry">
                        <mxPoint x="1080" y="1892.4" as="sourcePoint"/>
                        <mxPoint x="1240" y="1847.6" as="targetPoint"/>
                        <Array as="points"/>
                    </mxGeometry>
                </mxCell>
                <mxCell id="516" value="" style="edgeStyle=none;orthogonalLoop=1;jettySize=auto;html=1;rounded=1;strokeWidth=1;startArrow=none;startFill=0;endArrow=blockThin;endFill=0;sourcePerimeterSpacing=0;elbow=vertical;" parent="1" source="504" target="501" edge="1">
                    <mxGeometry width="100" relative="1" as="geometry">
                        <mxPoint x="1124.2857142857144" y="1890" as="sourcePoint"/>
                        <mxPoint x="1095.7142857142856" y="1850" as="targetPoint"/>
                        <Array as="points"/>
                    </mxGeometry>
                </mxCell>
                <mxCell id="517" value="" style="edgeStyle=none;orthogonalLoop=1;jettySize=auto;html=1;rounded=1;strokeWidth=1;startArrow=none;startFill=0;endArrow=blockThin;endFill=0;sourcePerimeterSpacing=0;elbow=vertical;" parent="1" source="504" target="502" edge="1">
                    <mxGeometry width="100" relative="1" as="geometry">
                        <mxPoint x="1102.857142857143" y="1890" as="sourcePoint"/>
                        <mxPoint x="1017.1428571428571" y="1850" as="targetPoint"/>
                        <Array as="points"/>
                    </mxGeometry>
                </mxCell>
                <mxCell id="518" value="" style="edgeStyle=none;orthogonalLoop=1;jettySize=auto;html=1;rounded=1;strokeWidth=1;startArrow=none;startFill=0;endArrow=blockThin;endFill=0;sourcePerimeterSpacing=0;elbow=vertical;" parent="1" source="505" target="500" edge="1">
                    <mxGeometry width="100" relative="1" as="geometry">
                        <mxPoint x="1167.142857142857" y="1890" as="sourcePoint"/>
                        <mxPoint x="1252.857142857143" y="1850" as="targetPoint"/>
                        <Array as="points"/>
                    </mxGeometry>
                </mxCell>
                <mxCell id="519" value="" style="edgeStyle=none;orthogonalLoop=1;jettySize=auto;html=1;rounded=1;strokeWidth=1;startArrow=none;startFill=0;endArrow=blockThin;endFill=0;sourcePerimeterSpacing=0;elbow=vertical;" parent="1" source="505" target="502" edge="1">
                    <mxGeometry width="100" relative="1" as="geometry">
                        <mxPoint x="1202.857142857143" y="1890" as="sourcePoint"/>
                        <mxPoint x="1117.142857142857" y="1850" as="targetPoint"/>
                        <Array as="points"/>
                    </mxGeometry>
                </mxCell>
                <mxCell id="520" value="SwapChain Image_0" style="whiteSpace=wrap;html=1;rounded=1;shadow=0;glass=0;sketch=0;strokeWidth=1;fillColor=none;" parent="1" vertex="1">
                    <mxGeometry x="1520" y="1800" width="120" height="30" as="geometry"/>
                </mxCell>
                <mxCell id="521" value="SwapChain Image_1" style="whiteSpace=wrap;html=1;rounded=1;shadow=0;glass=0;sketch=0;strokeWidth=1;fillColor=none;" parent="1" vertex="1">
                    <mxGeometry x="1520" y="1850" width="120" height="30" as="geometry"/>
                </mxCell>
                <mxCell id="522" value="SwapChain Image_2" style="whiteSpace=wrap;html=1;rounded=1;shadow=0;glass=0;sketch=0;strokeWidth=1;fillColor=none;" parent="1" vertex="1">
                    <mxGeometry x="1520" y="1900" width="120" height="30" as="geometry"/>
                </mxCell>
                <mxCell id="523" value="SwapChain Image_3" style="whiteSpace=wrap;html=1;rounded=1;shadow=0;glass=0;sketch=0;strokeWidth=1;fillColor=none;" parent="1" vertex="1">
                    <mxGeometry x="1520" y="1950" width="120" height="30" as="geometry"/>
                </mxCell>
                <mxCell id="524" value="SwapChain Image_4" style="whiteSpace=wrap;html=1;rounded=1;shadow=0;glass=0;sketch=0;strokeWidth=1;fillColor=none;" parent="1" vertex="1">
                    <mxGeometry x="1520" y="2000" width="120" height="30" as="geometry"/>
                </mxCell>
                <mxCell id="525" value="SwapChain ImageView_0" style="whiteSpace=wrap;html=1;rounded=1;shadow=0;glass=0;sketch=0;strokeWidth=1;fillColor=none;" parent="1" vertex="1">
                    <mxGeometry x="1680" y="1800" width="120" height="30" as="geometry"/>
                </mxCell>
                <mxCell id="526" value="SwapChain ImageView_1" style="whiteSpace=wrap;html=1;rounded=1;shadow=0;glass=0;sketch=0;strokeWidth=1;fillColor=none;" parent="1" vertex="1">
                    <mxGeometry x="1680" y="1850" width="120" height="30" as="geometry"/>
                </mxCell>
                <mxCell id="527" value="SwapChain ImageView_2" style="whiteSpace=wrap;html=1;rounded=1;shadow=0;glass=0;sketch=0;strokeWidth=1;fillColor=none;" parent="1" vertex="1">
                    <mxGeometry x="1680" y="1900" width="120" height="30" as="geometry"/>
                </mxCell>
                <mxCell id="528" value="SwapChain ImageView_3" style="whiteSpace=wrap;html=1;rounded=1;shadow=0;glass=0;sketch=0;strokeWidth=1;fillColor=none;" parent="1" vertex="1">
                    <mxGeometry x="1680" y="1950" width="120" height="30" as="geometry"/>
                </mxCell>
                <mxCell id="529" value="SwapChain ImageView_4" style="whiteSpace=wrap;html=1;rounded=1;shadow=0;glass=0;sketch=0;strokeWidth=1;fillColor=none;" parent="1" vertex="1">
                    <mxGeometry x="1680" y="2000" width="120" height="30" as="geometry"/>
                </mxCell>
                <mxCell id="530" value="" style="edgeStyle=none;orthogonalLoop=1;jettySize=auto;html=1;rounded=1;strokeWidth=1;startArrow=none;startFill=0;endArrow=none;endFill=0;sourcePerimeterSpacing=0;elbow=vertical;dashed=1;" parent="1" source="520" target="525" edge="1">
                    <mxGeometry width="100" relative="1" as="geometry">
                        <mxPoint x="1570" y="1740" as="sourcePoint"/>
                        <mxPoint x="1670" y="1740" as="targetPoint"/>
                        <Array as="points"/>
                    </mxGeometry>
                </mxCell>
                <mxCell id="531" value="" style="edgeStyle=none;orthogonalLoop=1;jettySize=auto;html=1;rounded=1;strokeWidth=1;startArrow=none;startFill=0;endArrow=none;endFill=0;sourcePerimeterSpacing=0;elbow=vertical;dashed=1;" parent="1" source="521" target="526" edge="1">
                    <mxGeometry width="100" relative="1" as="geometry">
                        <mxPoint x="1650" y="1825" as="sourcePoint"/>
                        <mxPoint x="1730" y="1825" as="targetPoint"/>
                        <Array as="points"/>
                    </mxGeometry>
                </mxCell>
                <mxCell id="532" value="" style="edgeStyle=none;orthogonalLoop=1;jettySize=auto;html=1;rounded=1;strokeWidth=1;startArrow=none;startFill=0;endArrow=none;endFill=0;sourcePerimeterSpacing=0;elbow=vertical;dashed=1;" parent="1" source="522" target="527" edge="1">
                    <mxGeometry width="100" relative="1" as="geometry">
                        <mxPoint x="1650" y="1875" as="sourcePoint"/>
                        <mxPoint x="1730" y="1875" as="targetPoint"/>
                        <Array as="points"/>
                    </mxGeometry>
                </mxCell>
                <mxCell id="533" value="" style="edgeStyle=none;orthogonalLoop=1;jettySize=auto;html=1;rounded=1;strokeWidth=1;startArrow=none;startFill=0;endArrow=none;endFill=0;sourcePerimeterSpacing=0;elbow=vertical;dashed=1;" parent="1" source="523" target="528" edge="1">
                    <mxGeometry width="100" relative="1" as="geometry">
                        <mxPoint x="1650" y="1925" as="sourcePoint"/>
                        <mxPoint x="1730" y="1925" as="targetPoint"/>
                        <Array as="points"/>
                    </mxGeometry>
                </mxCell>
                <mxCell id="534" value="" style="edgeStyle=none;orthogonalLoop=1;jettySize=auto;html=1;rounded=1;strokeWidth=1;startArrow=none;startFill=0;endArrow=none;endFill=0;sourcePerimeterSpacing=0;elbow=vertical;dashed=1;" parent="1" source="524" target="529" edge="1">
                    <mxGeometry width="100" relative="1" as="geometry">
                        <mxPoint x="1650" y="1975" as="sourcePoint"/>
                        <mxPoint x="1730" y="1975" as="targetPoint"/>
                        <Array as="points"/>
                    </mxGeometry>
                </mxCell>
                <mxCell id="535" value="Frame Buffer_0" style="whiteSpace=wrap;html=1;rounded=1;shadow=0;glass=0;sketch=0;strokeWidth=1;fillColor=none;" parent="1" vertex="1">
                    <mxGeometry x="1880" y="1840" width="120" height="30" as="geometry"/>
                </mxCell>
                <mxCell id="536" value="Frame Buffer_1" style="whiteSpace=wrap;html=1;rounded=1;shadow=0;glass=0;sketch=0;strokeWidth=1;fillColor=none;" parent="1" vertex="1">
                    <mxGeometry x="1880" y="1920" width="120" height="30" as="geometry"/>
                </mxCell>
                <mxCell id="537" value="" style="edgeStyle=entityRelationEdgeStyle;orthogonalLoop=1;jettySize=auto;html=1;rounded=1;strokeWidth=1;startArrow=none;startFill=0;endArrow=none;endFill=0;sourcePerimeterSpacing=0;elbow=vertical;dashed=1;" parent="1" source="525" target="535" edge="1">
                    <mxGeometry width="100" relative="1" as="geometry">
                        <mxPoint x="1650" y="1825" as="sourcePoint"/>
                        <mxPoint x="1690" y="1825" as="targetPoint"/>
                    </mxGeometry>
                </mxCell>
                <mxCell id="538" value="" style="edgeStyle=entityRelationEdgeStyle;orthogonalLoop=1;jettySize=auto;html=1;rounded=1;strokeWidth=1;startArrow=none;startFill=0;endArrow=none;endFill=0;sourcePerimeterSpacing=0;elbow=vertical;dashed=1;" parent="1" source="528" target="535" edge="1">
                    <mxGeometry width="100" relative="1" as="geometry">
                        <mxPoint x="1810" y="1837" as="sourcePoint"/>
                        <mxPoint x="1890" y="1853" as="targetPoint"/>
                    </mxGeometry>
                </mxCell>
                <mxCell id="539" value="" style="edgeStyle=entityRelationEdgeStyle;orthogonalLoop=1;jettySize=auto;html=1;rounded=1;strokeWidth=1;startArrow=none;startFill=0;endArrow=none;endFill=0;sourcePerimeterSpacing=0;elbow=vertical;dashed=1;" parent="1" source="527" target="535" edge="1">
                    <mxGeometry width="100" relative="1" as="geometry">
                        <mxPoint x="1777.272727272727" y="1960" as="sourcePoint"/>
                        <mxPoint x="1922.727272727273" y="1880" as="targetPoint"/>
                    </mxGeometry>
                </mxCell>
                <mxCell id="540" value="" style="edgeStyle=entityRelationEdgeStyle;orthogonalLoop=1;jettySize=auto;html=1;rounded=1;strokeWidth=1;startArrow=none;startFill=0;endArrow=none;endFill=0;sourcePerimeterSpacing=0;elbow=vertical;dashed=1;" parent="1" source="529" target="536" edge="1">
                    <mxGeometry width="100" relative="1" as="geometry">
                        <mxPoint x="1777.272727272727" y="1960" as="sourcePoint"/>
                        <mxPoint x="1922.727272727273" y="1880" as="targetPoint"/>
                    </mxGeometry>
                </mxCell>
                <mxCell id="541" value="" style="edgeStyle=entityRelationEdgeStyle;orthogonalLoop=1;jettySize=auto;html=1;rounded=1;strokeWidth=1;startArrow=none;startFill=0;endArrow=none;endFill=0;sourcePerimeterSpacing=0;elbow=vertical;dashed=1;" parent="1" source="528" target="536" edge="1">
                    <mxGeometry width="100" relative="1" as="geometry">
                        <mxPoint x="1787.5" y="2010" as="sourcePoint"/>
                        <mxPoint x="1912.5" y="1960" as="targetPoint"/>
                    </mxGeometry>
                </mxCell>
                <mxCell id="542" value="" style="edgeStyle=entityRelationEdgeStyle;orthogonalLoop=1;jettySize=auto;html=1;rounded=1;strokeWidth=1;startArrow=none;startFill=0;endArrow=none;endFill=0;sourcePerimeterSpacing=0;elbow=vertical;dashed=1;" parent="1" source="526" target="536" edge="1">
                    <mxGeometry width="100" relative="1" as="geometry">
                        <mxPoint x="1810" y="1966" as="sourcePoint"/>
                        <mxPoint x="1890" y="1954" as="targetPoint"/>
                    </mxGeometry>
                </mxCell>
                <mxCell id="543" value="Render Pass_0" style="whiteSpace=wrap;html=1;rounded=1;shadow=0;glass=0;sketch=0;strokeWidth=1;fillColor=none;" parent="1" vertex="1">
                    <mxGeometry x="2200" y="1840" width="120" height="30" as="geometry"/>
                </mxCell>
                <mxCell id="544" value="Render pass_1" style="whiteSpace=wrap;html=1;rounded=1;shadow=0;glass=0;sketch=0;strokeWidth=1;fillColor=none;" parent="1" vertex="1">
                    <mxGeometry x="2200" y="2000" width="120" height="30" as="geometry"/>
                </mxCell>
                <mxCell id="547" value="兼容" style="whiteSpace=wrap;html=1;rounded=1;shadow=0;glass=0;sketch=0;strokeWidth=1;fillColor=none;dashed=1;" parent="1" vertex="1">
                    <mxGeometry x="2080" y="1920" width="40" height="30" as="geometry"/>
                </mxCell>
                <mxCell id="548" value="" style="edgeStyle=entityRelationEdgeStyle;orthogonalLoop=1;jettySize=auto;html=1;rounded=1;strokeWidth=1;startArrow=none;startFill=0;endArrow=none;endFill=0;sourcePerimeterSpacing=0;elbow=vertical;dashed=1;" parent="1" source="535" target="547" edge="1">
                    <mxGeometry width="100" relative="1" as="geometry">
                        <mxPoint x="1810" y="1825" as="sourcePoint"/>
                        <mxPoint x="1890" y="1865" as="targetPoint"/>
                    </mxGeometry>
                </mxCell>
                <mxCell id="549" value="" style="edgeStyle=entityRelationEdgeStyle;orthogonalLoop=1;jettySize=auto;html=1;rounded=1;strokeWidth=1;startArrow=none;startFill=0;endArrow=none;endFill=0;sourcePerimeterSpacing=0;elbow=vertical;dashed=1;" parent="1" source="536" target="547" edge="1">
                    <mxGeometry width="100" relative="1" as="geometry">
                        <mxPoint x="2010" y="1865" as="sourcePoint"/>
                        <mxPoint x="2050" y="1945" as="targetPoint"/>
                    </mxGeometry>
                </mxCell>
                <mxCell id="550" value="" style="edgeStyle=entityRelationEdgeStyle;orthogonalLoop=1;jettySize=auto;html=1;rounded=1;strokeWidth=1;startArrow=none;startFill=0;endArrow=none;endFill=0;sourcePerimeterSpacing=0;elbow=vertical;dashed=1;" parent="1" source="547" target="543" edge="1">
                    <mxGeometry width="100" relative="1" as="geometry">
                        <mxPoint x="2010" y="1865" as="sourcePoint"/>
                        <mxPoint x="2090" y="1945" as="targetPoint"/>
                    </mxGeometry>
                </mxCell>
                <mxCell id="551" value="" style="edgeStyle=entityRelationEdgeStyle;orthogonalLoop=1;jettySize=auto;html=1;rounded=1;strokeWidth=1;startArrow=none;startFill=0;endArrow=none;endFill=0;sourcePerimeterSpacing=0;elbow=vertical;dashed=1;" parent="1" source="547" target="544" edge="1">
                    <mxGeometry width="100" relative="1" as="geometry">
                        <mxPoint x="2210" y="1945" as="sourcePoint"/>
                        <mxPoint x="2290" y="1865" as="targetPoint"/>
                    </mxGeometry>
                </mxCell>
                <mxCell id="552" value="Frame Buffer_2" style="whiteSpace=wrap;html=1;rounded=1;shadow=0;glass=0;sketch=0;strokeWidth=1;fillColor=none;" parent="1" vertex="1">
                    <mxGeometry x="1880" y="2000" width="120" height="30" as="geometry"/>
                </mxCell>
                <mxCell id="553" value="" style="edgeStyle=entityRelationEdgeStyle;orthogonalLoop=1;jettySize=auto;html=1;rounded=1;strokeWidth=1;startArrow=none;startFill=0;endArrow=none;endFill=0;sourcePerimeterSpacing=0;elbow=vertical;dashed=1;" parent="1" source="552" target="547" edge="1">
                    <mxGeometry width="100" relative="1" as="geometry">
                        <mxPoint x="2010" y="1945" as="sourcePoint"/>
                        <mxPoint x="2090" y="1945" as="targetPoint"/>
                    </mxGeometry>
                </mxCell>
                <mxCell id="554" value="Subpass_0" style="whiteSpace=wrap;html=1;rounded=1;shadow=0;glass=0;sketch=0;strokeWidth=1;fillColor=none;" parent="1" vertex="1">
                    <mxGeometry x="2400" y="1770" width="120" height="30" as="geometry"/>
                </mxCell>
                <mxCell id="555" value="" style="edgeStyle=entityRelationEdgeStyle;orthogonalLoop=1;jettySize=auto;html=1;rounded=1;strokeWidth=1;startArrow=none;startFill=0;endArrow=none;endFill=0;sourcePerimeterSpacing=0;elbow=vertical;dashed=1;" parent="1" source="543" target="554" edge="1">
                    <mxGeometry width="100" relative="1" as="geometry">
                        <mxPoint x="2130" y="1945" as="sourcePoint"/>
                        <mxPoint x="2210" y="1865" as="targetPoint"/>
                    </mxGeometry>
                </mxCell>
                <mxCell id="556" value="Subpass_1" style="whiteSpace=wrap;html=1;rounded=1;shadow=0;glass=0;sketch=0;strokeWidth=1;fillColor=none;" parent="1" vertex="1">
                    <mxGeometry x="2400" y="1820" width="120" height="30" as="geometry"/>
                </mxCell>
                <mxCell id="557" value="Subpass_2" style="whiteSpace=wrap;html=1;rounded=1;shadow=0;glass=0;sketch=0;strokeWidth=1;fillColor=none;" parent="1" vertex="1">
                    <mxGeometry x="2400" y="1870" width="120" height="30" as="geometry"/>
                </mxCell>
                <mxCell id="558" value="" style="edgeStyle=entityRelationEdgeStyle;orthogonalLoop=1;jettySize=auto;html=1;rounded=1;strokeWidth=1;startArrow=none;startFill=0;endArrow=none;endFill=0;sourcePerimeterSpacing=0;elbow=vertical;dashed=1;" parent="1" source="543" target="556" edge="1">
                    <mxGeometry width="100" relative="1" as="geometry">
                        <mxPoint x="2330" y="1865" as="sourcePoint"/>
                        <mxPoint x="2410" y="1785" as="targetPoint"/>
                    </mxGeometry>
                </mxCell>
                <mxCell id="559" value="" style="edgeStyle=entityRelationEdgeStyle;orthogonalLoop=1;jettySize=auto;html=1;rounded=1;strokeWidth=1;startArrow=none;startFill=0;endArrow=none;endFill=0;sourcePerimeterSpacing=0;elbow=vertical;dashed=1;" parent="1" source="543" target="557" edge="1">
                    <mxGeometry width="100" relative="1" as="geometry">
                        <mxPoint x="2330" y="1865" as="sourcePoint"/>
                        <mxPoint x="2410" y="1835" as="targetPoint"/>
                    </mxGeometry>
                </mxCell>
                <mxCell id="560" value="Subpass_0" style="whiteSpace=wrap;html=1;rounded=1;shadow=0;glass=0;sketch=0;strokeWidth=1;fillColor=none;" parent="1" vertex="1">
                    <mxGeometry x="2400" y="2000" width="120" height="30" as="geometry"/>
                </mxCell>
                <mxCell id="561" value="Subpass_1" style="whiteSpace=wrap;html=1;rounded=1;shadow=0;glass=0;sketch=0;strokeWidth=1;fillColor=none;" parent="1" vertex="1">
                    <mxGeometry x="2400" y="2050" width="120" height="30" as="geometry"/>
                </mxCell>
                <mxCell id="563" value="" style="edgeStyle=entityRelationEdgeStyle;orthogonalLoop=1;jettySize=auto;html=1;rounded=1;strokeWidth=1;startArrow=none;startFill=0;endArrow=none;endFill=0;sourcePerimeterSpacing=0;elbow=vertical;dashed=1;" parent="1" source="544" target="560" edge="1">
                    <mxGeometry width="100" relative="1" as="geometry">
                        <mxPoint x="2330" y="1865" as="sourcePoint"/>
                        <mxPoint x="2410" y="1895" as="targetPoint"/>
                    </mxGeometry>
                </mxCell>
                <mxCell id="564" value="" style="edgeStyle=entityRelationEdgeStyle;orthogonalLoop=1;jettySize=auto;html=1;rounded=1;strokeWidth=1;startArrow=none;startFill=0;endArrow=none;endFill=0;sourcePerimeterSpacing=0;elbow=vertical;dashed=1;" parent="1" source="544" target="561" edge="1">
                    <mxGeometry width="100" relative="1" as="geometry">
                        <mxPoint x="2330" y="2025" as="sourcePoint"/>
                        <mxPoint x="2410" y="2025" as="targetPoint"/>
                    </mxGeometry>
                </mxCell>
                <mxCell id="565" value="Attachment_0" style="whiteSpace=wrap;html=1;rounded=1;shadow=0;glass=0;sketch=0;strokeWidth=1;fillColor=none;" parent="1" vertex="1">
                    <mxGeometry x="2602" y="1770" width="120" height="30" as="geometry"/>
                </mxCell>
                <mxCell id="566" value="Attachment_1" style="whiteSpace=wrap;html=1;rounded=1;shadow=0;glass=0;sketch=0;strokeWidth=1;fillColor=none;" parent="1" vertex="1">
                    <mxGeometry x="2602" y="1820" width="120" height="30" as="geometry"/>
                </mxCell>
                <mxCell id="567" value="Attachment_2" style="whiteSpace=wrap;html=1;rounded=1;shadow=0;glass=0;sketch=0;strokeWidth=1;fillColor=none;" parent="1" vertex="1">
                    <mxGeometry x="2602" y="1870" width="120" height="30" as="geometry"/>
                </mxCell>
                <mxCell id="568" value="" style="edgeStyle=entityRelationEdgeStyle;orthogonalLoop=1;jettySize=auto;html=1;rounded=1;strokeWidth=1;startArrow=none;startFill=0;endArrow=none;endFill=0;sourcePerimeterSpacing=0;elbow=vertical;dashed=1;" parent="1" source="554" target="566" edge="1">
                    <mxGeometry width="100" relative="1" as="geometry">
                        <mxPoint x="2330" y="1865" as="sourcePoint"/>
                        <mxPoint x="2410" y="1845" as="targetPoint"/>
                    </mxGeometry>
                </mxCell>
                <mxCell id="569" value="" style="edgeStyle=entityRelationEdgeStyle;orthogonalLoop=1;jettySize=auto;html=1;rounded=1;strokeWidth=1;startArrow=none;startFill=0;endArrow=none;endFill=0;sourcePerimeterSpacing=0;elbow=vertical;dashed=1;" parent="1" source="556" target="567" edge="1">
                    <mxGeometry width="100" relative="1" as="geometry">
                        <mxPoint x="2530" y="1795" as="sourcePoint"/>
                        <mxPoint x="2612" y="1845" as="targetPoint"/>
                    </mxGeometry>
                </mxCell>
                <mxCell id="571" value="" style="edgeStyle=entityRelationEdgeStyle;orthogonalLoop=1;jettySize=auto;html=1;rounded=1;strokeWidth=1;startArrow=none;startFill=0;endArrow=none;endFill=0;sourcePerimeterSpacing=0;elbow=vertical;dashed=1;entryX=0.25;entryY=1;entryDx=0;entryDy=0;" parent="1" source="556" target="565" edge="1">
                    <mxGeometry width="100" relative="1" as="geometry">
                        <mxPoint x="2540" y="1805" as="sourcePoint"/>
                        <mxPoint x="2622" y="1855" as="targetPoint"/>
                    </mxGeometry>
                </mxCell>
                <mxCell id="572" value="" style="edgeStyle=entityRelationEdgeStyle;orthogonalLoop=1;jettySize=auto;html=1;rounded=1;strokeWidth=1;startArrow=none;startFill=0;endArrow=none;endFill=0;sourcePerimeterSpacing=0;elbow=vertical;dashed=1;" parent="1" source="557" target="566" edge="1">
                    <mxGeometry width="100" relative="1" as="geometry">
                        <mxPoint x="2530" y="1845" as="sourcePoint"/>
                        <mxPoint x="2642" y="1810" as="targetPoint"/>
                    </mxGeometry>
                </mxCell>
                <mxCell id="573" value="Attachment_0" style="whiteSpace=wrap;html=1;rounded=1;shadow=0;glass=0;sketch=0;strokeWidth=1;fillColor=none;" parent="1" vertex="1">
                    <mxGeometry x="2600" y="2000" width="120" height="30" as="geometry"/>
                </mxCell>
                <mxCell id="574" value="Attachment_1" style="whiteSpace=wrap;html=1;rounded=1;shadow=0;glass=0;sketch=0;strokeWidth=1;fillColor=none;" parent="1" vertex="1">
                    <mxGeometry x="2600" y="2050" width="120" height="30" as="geometry"/>
                </mxCell>
                <mxCell id="575" value="Attachment_2" style="whiteSpace=wrap;html=1;rounded=1;shadow=0;glass=0;sketch=0;strokeWidth=1;fillColor=none;" parent="1" vertex="1">
                    <mxGeometry x="2600" y="2100" width="120" height="30" as="geometry"/>
                </mxCell>
            </root>
        </mxGraphModel>
    </diagram>
</mxfile>